<svg width="74" height="72" viewBox="0 0 74 72" fill="none" xmlns="http://www.w3.org/2000/svg">
<path d="M2.89999 1.7213C3.37044 1.7213 3.75182 1.33985 3.75182 0.869317C3.75182 0.39878 3.37044 0.017334 2.89999 0.017334C2.42954 0.017334 2.04816 0.39878 2.04816 0.869317C2.04816 1.33985 2.42954 1.7213 2.89999 1.7213Z" fill="white"/>
<path d="M2.89999 15.7797C3.37044 15.7797 3.75182 15.3982 3.75182 14.9277C3.75182 14.4571 3.37044 14.0757 2.89999 14.0757C2.42954 14.0757 2.04816 14.4571 2.04816 14.9277C2.04816 15.3982 2.42954 15.7797 2.89999 15.7797Z" fill="white"/>
<path d="M16.9019 1.7213C17.3724 1.7213 17.7538 1.33985 17.7538 0.869317C17.7538 0.39878 17.3724 0.017334 16.9019 0.017334C16.4315 0.017334 16.0501 0.39878 16.0501 0.869317C16.0501 1.33985 16.4315 1.7213 16.9019 1.7213Z" fill="white"/>
<path d="M16.9019 15.7797C17.3724 15.7797 17.7538 15.3982 17.7538 14.9277C17.7538 14.4571 17.3724 14.0757 16.9019 14.0757C16.4315 14.0757 16.0501 14.4571 16.0501 14.9277C16.0501 15.3982 16.4315 15.7797 16.9019 15.7797Z" fill="white"/>
<path d="M30.9038 1.7213C31.3743 1.7213 31.7557 1.33985 31.7557 0.869317C31.7557 0.39878 31.3743 0.017334 30.9038 0.017334C30.4334 0.017334 30.052 0.39878 30.052 0.869317C30.052 1.33985 30.4334 1.7213 30.9038 1.7213Z" fill="white"/>
<path d="M30.9038 15.7797C31.3743 15.7797 31.7557 15.3982 31.7557 14.9277C31.7557 14.4571 31.3743 14.0757 30.9038 14.0757C30.4334 14.0757 30.052 14.4571 30.052 14.9277C30.052 15.3982 30.4334 15.7797 30.9038 15.7797Z" fill="white"/>
<path d="M44.9058 1.7213C45.3762 1.7213 45.7576 1.33985 45.7576 0.869317C45.7576 0.39878 45.3762 0.017334 44.9058 0.017334C44.4353 0.017334 44.054 0.39878 44.054 0.869317C44.054 1.33985 44.4353 1.7213 44.9058 1.7213Z" fill="white"/>
<path d="M44.9058 15.7797C45.3762 15.7797 45.7576 15.3982 45.7576 14.9277C45.7576 14.4571 45.3762 14.0757 44.9058 14.0757C44.4353 14.0757 44.054 14.4571 44.054 14.9277C44.054 15.3982 44.4353 15.7797 44.9058 15.7797Z" fill="white"/>
<path d="M58.9077 1.7213C59.3782 1.7213 59.7596 1.33985 59.7596 0.869317C59.7596 0.39878 59.3782 0.017334 58.9077 0.017334C58.4373 0.017334 58.0559 0.39878 58.0559 0.869317C58.0559 1.33985 58.4373 1.7213 58.9077 1.7213Z" fill="white"/>
<path d="M58.9077 15.7797C59.3782 15.7797 59.7596 15.3982 59.7596 14.9277C59.7596 14.4571 59.3782 14.0757 58.9077 14.0757C58.4373 14.0757 58.0559 14.4571 58.0559 14.9277C58.0559 15.3982 58.4373 15.7797 58.9077 15.7797Z" fill="white"/>
<path d="M72.9096 1.7213C73.3801 1.7213 73.7615 1.33985 73.7615 0.869317C73.7615 0.39878 73.3801 0.017334 72.9096 0.017334C72.4392 0.017334 72.0578 0.39878 72.0578 0.869317C72.0578 1.33985 72.4392 1.7213 72.9096 1.7213Z" fill="white"/>
<path d="M72.9096 15.7797C73.3801 15.7797 73.7615 15.3982 73.7615 14.9277C73.7615 14.4571 73.3801 14.0757 72.9096 14.0757C72.4392 14.0757 72.0578 14.4571 72.0578 14.9277C72.0578 15.3982 72.4392 15.7797 72.9096 15.7797Z" fill="white"/>
<path d="M2.89999 29.7838C3.37044 29.7838 3.75182 29.4024 3.75182 28.9318C3.75182 28.4613 3.37044 28.0798 2.89999 28.0798C2.42954 28.0798 2.04816 28.4613 2.04816 28.9318C2.04816 29.4024 2.42954 29.7838 2.89999 29.7838Z" fill="white"/>
<path d="M2.89999 43.7879C3.37044 43.7879 3.75182 43.4065 3.75182 42.936C3.75182 42.4654 3.37044 42.084 2.89999 42.084C2.42954 42.084 2.04816 42.4654 2.04816 42.936C2.04816 43.4065 2.42954 43.7879 2.89999 43.7879Z" fill="white"/>
<path d="M16.9019 29.7838C17.3724 29.7838 17.7538 29.4024 17.7538 28.9318C17.7538 28.4613 17.3724 28.0798 16.9019 28.0798C16.4315 28.0798 16.0501 28.4613 16.0501 28.9318C16.0501 29.4024 16.4315 29.7838 16.9019 29.7838Z" fill="white"/>
<path d="M16.9019 43.7879C17.3724 43.7879 17.7538 43.4065 17.7538 42.936C17.7538 42.4654 17.3724 42.084 16.9019 42.084C16.4315 42.084 16.0501 42.4654 16.0501 42.936C16.0501 43.4065 16.4315 43.7879 16.9019 43.7879Z" fill="white"/>
<path d="M30.9038 29.7838C31.3743 29.7838 31.7557 29.4024 31.7557 28.9318C31.7557 28.4613 31.3743 28.0798 30.9038 28.0798C30.4334 28.0798 30.052 28.4613 30.052 28.9318C30.052 29.4024 30.4334 29.7838 30.9038 29.7838Z" fill="white"/>
<path d="M30.9038 43.7879C31.3743 43.7879 31.7557 43.4065 31.7557 42.936C31.7557 42.4654 31.3743 42.084 30.9038 42.084C30.4334 42.084 30.052 42.4654 30.052 42.936C30.052 43.4065 30.4334 43.7879 30.9038 43.7879Z" fill="white"/>
<path d="M44.9058 29.7838C45.3762 29.7838 45.7576 29.4024 45.7576 28.9318C45.7576 28.4613 45.3762 28.0798 44.9058 28.0798C44.4353 28.0798 44.054 28.4613 44.054 28.9318C44.054 29.4024 44.4353 29.7838 44.9058 29.7838Z" fill="white"/>
<path d="M44.9058 43.7879C45.3762 43.7879 45.7576 43.4065 45.7576 42.936C45.7576 42.4654 45.3762 42.084 44.9058 42.084C44.4353 42.084 44.054 42.4654 44.054 42.936C44.054 43.4065 44.4353 43.7879 44.9058 43.7879Z" fill="white"/>
<path d="M58.9077 29.7838C59.3782 29.7838 59.7596 29.4024 59.7596 28.9318C59.7596 28.4613 59.3782 28.0798 58.9077 28.0798C58.4373 28.0798 58.0559 28.4613 58.0559 28.9318C58.0559 29.4024 58.4373 29.7838 58.9077 29.7838Z" fill="white"/>
<path d="M58.9077 43.7879C59.3782 43.7879 59.7596 43.4065 59.7596 42.936C59.7596 42.4654 59.3782 42.084 58.9077 42.084C58.4373 42.084 58.0559 42.4654 58.0559 42.936C58.0559 43.4065 58.4373 43.7879 58.9077 43.7879Z" fill="white"/>
<path d="M72.9096 29.7838C73.3801 29.7838 73.7615 29.4024 73.7615 28.9318C73.7615 28.4613 73.3801 28.0798 72.9096 28.0798C72.4392 28.0798 72.0578 28.4613 72.0578 28.9318C72.0578 29.4024 72.4392 29.7838 72.9096 29.7838Z" fill="white"/>
<path d="M72.9096 43.7879C73.3801 43.7879 73.7615 43.4065 73.7615 42.936C73.7615 42.4654 73.3801 42.084 72.9096 42.084C72.4392 42.084 72.0578 42.4654 72.0578 42.936C72.0578 43.4065 72.4392 43.7879 72.9096 43.7879Z" fill="white"/>
<path d="M2.89999 57.7921C3.37044 57.7921 3.75182 57.4107 3.75182 56.9401C3.75182 56.4696 3.37044 56.0881 2.89999 56.0881C2.42954 56.0881 2.04816 56.4696 2.04816 56.9401C2.04816 57.4107 2.42954 57.7921 2.89999 57.7921Z" fill="white"/>
<path d="M2.89999 71.7972C3.37044 71.7972 3.75182 71.4158 3.75182 70.9452C3.75182 70.4747 3.37044 70.0933 2.89999 70.0933C2.42954 70.0933 2.04816 70.4747 2.04816 70.9452C2.04816 71.4158 2.42954 71.7972 2.89999 71.7972Z" fill="white"/>
<path d="M16.9019 57.7921C17.3724 57.7921 17.7538 57.4107 17.7538 56.9401C17.7538 56.4696 17.3724 56.0881 16.9019 56.0881C16.4315 56.0881 16.0501 56.4696 16.0501 56.9401C16.0501 57.4107 16.4315 57.7921 16.9019 57.7921Z" fill="white"/>
<path d="M16.9019 71.7972C17.3724 71.7972 17.7538 71.4158 17.7538 70.9452C17.7538 70.4747 17.3724 70.0933 16.9019 70.0933C16.4315 70.0933 16.0501 70.4747 16.0501 70.9452C16.0501 71.4158 16.4315 71.7972 16.9019 71.7972Z" fill="white"/>
<path d="M30.9038 57.7921C31.3743 57.7921 31.7557 57.4107 31.7557 56.9401C31.7557 56.4696 31.3743 56.0881 30.9038 56.0881C30.4334 56.0881 30.052 56.4696 30.052 56.9401C30.052 57.4107 30.4334 57.7921 30.9038 57.7921Z" fill="white"/>
<path d="M30.9038 71.7972C31.3743 71.7972 31.7557 71.4158 31.7557 70.9452C31.7557 70.4747 31.3743 70.0933 30.9038 70.0933C30.4334 70.0933 30.052 70.4747 30.052 70.9452C30.052 71.4158 30.4334 71.7972 30.9038 71.7972Z" fill="white"/>
<path d="M44.9058 57.7921C45.3762 57.7921 45.7576 57.4107 45.7576 56.9401C45.7576 56.4696 45.3762 56.0881 44.9058 56.0881C44.4353 56.0881 44.054 56.4696 44.054 56.9401C44.054 57.4107 44.4353 57.7921 44.9058 57.7921Z" fill="white"/>
<path d="M44.9058 71.7972C45.3762 71.7972 45.7576 71.4158 45.7576 70.9452C45.7576 70.4747 45.3762 70.0933 44.9058 70.0933C44.4353 70.0933 44.054 70.4747 44.054 70.9452C44.054 71.4158 44.4353 71.7972 44.9058 71.7972Z" fill="white"/>
<path d="M58.9077 57.7921C59.3782 57.7921 59.7596 57.4107 59.7596 56.9401C59.7596 56.4696 59.3782 56.0881 58.9077 56.0881C58.4373 56.0881 58.0559 56.4696 58.0559 56.9401C58.0559 57.4107 58.4373 57.7921 58.9077 57.7921Z" fill="white"/>
<path d="M58.9077 71.7972C59.3782 71.7972 59.7596 71.4158 59.7596 70.9452C59.7596 70.4747 59.3782 70.0933 58.9077 70.0933C58.4373 70.0933 58.0559 70.4747 58.0559 70.9452C58.0559 71.4158 58.4373 71.7972 58.9077 71.7972Z" fill="white"/>
<path d="M72.9096 57.7921C73.3801 57.7921 73.7615 57.4107 73.7615 56.9401C73.7615 56.4696 73.3801 56.0881 72.9096 56.0881C72.4392 56.0881 72.0578 56.4696 72.0578 56.9401C72.0578 57.4107 72.4392 57.7921 72.9096 57.7921Z" fill="white"/>
<path d="M72.9096 71.7972C73.3801 71.7972 73.7615 71.4158 73.7615 70.9452C73.7615 70.4747 73.3801 70.0933 72.9096 70.0933C72.4392 70.0933 72.0578 70.4747 72.0578 70.9452C72.0578 71.4158 72.4392 71.7972 72.9096 71.7972Z" fill="white"/>
</svg>
