<svg width="230" height="51" viewBox="0 0 230 51" fill="none" xmlns="http://www.w3.org/2000/svg">
<path d="M68.3167 21.2499C69.182 21.7118 69.8652 22.3586 70.3206 23.1439C70.7761 23.9292 71.0493 24.8531 71.0493 25.8232C71.0493 26.6548 70.9127 27.3939 70.685 27.9944C70.5939 28.1792 70.5028 28.3178 70.3662 28.4102C70.2295 28.5026 70.0474 28.5488 69.7741 28.5488H61.6672C61.7583 29.4265 62.0315 30.2118 62.4414 30.9972C62.8513 31.7825 63.3068 32.383 63.8989 32.845C64.4909 33.3069 65.1286 33.5379 65.8117 33.5379C66.4493 33.5379 67.2236 33.4455 68.2256 33.2607C69.182 33.076 69.8652 32.9374 70.184 32.7988L70.4573 33.3069C69.8196 34.0923 68.9543 34.7852 67.8612 35.2933C66.7682 35.8015 65.6295 36.0787 64.4454 36.0787C63.2157 36.0787 62.0771 35.8015 60.984 35.2933C59.9365 34.739 59.0711 33.9075 58.388 32.7988C57.7048 31.6439 57.386 30.258 57.386 28.5488C57.386 27.1167 57.7048 25.777 58.3424 24.576C58.98 23.3287 59.8909 22.3586 61.0751 21.6194C62.2593 20.8803 63.6256 20.5107 65.1741 20.5107C66.4038 20.5569 67.4513 20.7879 68.3167 21.2499ZM67.3147 26.6086C67.2691 25.777 67.0414 25.0841 66.7226 24.4836C66.3583 23.883 65.9484 23.4211 65.4018 23.1439C64.8553 22.8205 64.3088 22.6819 63.6711 22.6819C63.3979 22.6819 63.2157 22.6819 63.0335 22.7281C62.8513 22.7743 62.7147 22.8667 62.5781 23.0053C62.3048 23.3749 62.1226 23.883 61.9404 24.6222C61.7583 25.3613 61.6672 26.239 61.6216 27.3015L67.3147 26.6086Z" fill="black"/>
<path d="M90.3148 34.6928L90.1326 35.8015H81.2059L81.4336 34.6004L82.9366 33.9075L80.1584 30.258L77.4713 33.9075L79.1564 34.739L78.9287 35.8015H72.2792L72.5069 34.6004L74.602 33.7689L78.8831 28.595L74.4198 22.8205L72.2336 22.0352L72.4614 20.9265H81.297L81.0693 22.0814L79.6574 22.7743L82.299 26.5162L84.9861 22.8205L83.2554 21.989L83.4831 20.9265H90.0416L89.8138 22.1738L87.9465 22.9129L83.5742 28.2716L88.1742 33.9075L90.3148 34.6928Z" fill="black"/>
<path d="M101.701 42.0843L101.473 43.193H90.9524L91.1801 41.9457L93.2752 40.9294V23.7446L91.089 22.405L91.2257 21.6196L96.4633 20.7881L97.4197 22.8669C98.3306 22.174 99.196 21.6196 100.016 21.2039C100.836 20.7881 101.701 20.5571 102.566 20.5571C103.659 20.5571 104.57 20.8343 105.344 21.4348C106.119 22.0354 106.711 22.8669 107.166 23.9756C107.622 25.0843 107.804 26.424 107.804 27.9484C107.804 29.3805 107.531 30.7202 106.984 31.9675C106.438 33.2147 105.709 34.231 104.752 34.9702C104.297 35.3397 103.796 35.6169 103.249 35.8017C102.703 36.0327 102.111 36.1251 101.519 36.1251C100.744 36.1251 100.016 35.9865 99.3326 35.7093C98.6494 35.4321 98.1029 35.0626 97.7385 34.5082V41.0218L101.701 42.0843ZM97.6019 24.9457V32.8452C98.0573 33.1685 98.6494 33.3533 99.287 33.4919C99.9247 33.6305 100.562 33.6767 101.245 33.6767C101.61 33.6767 101.929 33.6305 102.156 33.5381C102.384 33.4457 102.566 33.3071 102.703 33.0761C102.931 32.7528 103.113 32.1984 103.249 31.5517C103.386 30.8588 103.477 30.1196 103.477 29.3343C103.477 28.2256 103.341 27.2093 103.067 26.2392C102.794 25.3153 102.384 24.53 101.883 23.8832C101.701 23.6522 101.519 23.4675 101.337 23.3751C101.154 23.2827 100.927 23.2365 100.699 23.2365C100.335 23.2365 99.8336 23.2827 99.196 23.4213C98.5583 23.5598 98.0118 23.6984 97.6019 23.837C97.5564 24.1142 97.6019 24.4838 97.6019 24.9457Z" fill="black"/>
<path d="M109.307 14.4592L109.443 13.7201L115.865 12.7961V33.6766L118.097 34.7391L117.869 35.8016H109.261L109.489 34.6005L111.584 33.5842V15.8451L109.307 14.4592Z" fill="black"/>
<path d="M120.511 24.7147C121.148 23.4675 122.059 22.4512 123.198 21.712C124.337 20.9729 125.657 20.5571 127.115 20.5571C128.527 20.5571 129.802 20.8343 130.895 21.3887C132.034 21.943 132.899 22.7745 133.582 23.8832C134.265 24.9919 134.584 26.3778 134.584 28.0408C134.584 29.4729 134.265 30.7664 133.628 32.0137C132.99 33.2609 132.079 34.2772 130.941 35.0164C129.802 35.7555 128.527 36.1251 127.115 36.1251C125.703 36.1251 124.428 35.8479 123.289 35.3397C122.15 34.7854 121.24 34.0001 120.602 32.8452C119.919 31.7365 119.6 30.3506 119.6 28.6414C119.509 27.3017 119.828 25.962 120.511 24.7147ZM129.028 33.8153C129.301 33.7229 129.529 33.5843 129.665 33.3995C129.848 33.1224 130.03 32.6604 130.121 31.9675C130.212 31.2745 130.303 30.5816 130.303 29.8425C130.303 28.4104 130.121 27.1631 129.756 26.0544C129.392 24.9457 128.891 24.1604 128.208 23.5598C127.57 22.9593 126.796 22.6821 125.976 22.6821C125.247 22.6821 124.701 22.8669 124.428 23.2365C124.246 23.5137 124.109 23.9756 123.972 24.6685C123.836 25.3615 123.79 26.0544 123.79 26.7935C123.79 28.1332 123.972 29.3343 124.291 30.3968C124.61 31.4593 125.111 32.337 125.748 32.9376C126.386 33.5843 127.16 33.8615 128.071 33.8615C128.436 33.9539 128.754 33.9077 129.028 33.8153Z" fill="black"/>
<path d="M136.315 22.405L136.451 21.6196L141.643 20.7881L142.463 23.1903C144.604 21.4348 146.562 20.5571 148.247 20.5571C148.976 20.5571 149.705 20.7419 150.388 21.1577C151.071 21.5734 151.618 22.2202 151.982 23.1441C152.939 22.3588 153.895 21.712 154.943 21.2501C155.944 20.7881 156.855 20.5571 157.584 20.5571C158.586 20.5571 159.451 20.7419 160.089 21.1577C160.772 21.5734 161.273 22.2664 161.592 23.1903C161.956 24.1142 162.093 25.4077 162.093 26.9783V33.6305L164.507 34.6468L164.279 35.7555H156.218L156.445 34.6006L157.812 33.5381V28.0408C157.812 25.6848 157.539 24.2066 156.992 23.6984C156.901 23.5598 156.81 23.4675 156.719 23.4213C156.628 23.3751 156.491 23.3751 156.309 23.3751C155.944 23.3751 155.307 23.4213 154.442 23.5598C153.576 23.6984 152.847 23.8832 152.255 24.068C152.346 24.4376 152.438 24.9457 152.438 25.5925C152.483 26.2392 152.483 27.1631 152.483 28.318V33.6767L154.624 34.7392L154.35 35.8017H146.562L146.744 34.6468L148.111 33.5381V27.9484C148.111 25.6848 147.792 24.2066 147.154 23.4675C147.063 23.3751 146.927 23.3289 146.79 23.3289C146.335 23.3289 145.697 23.3751 144.877 23.5137C144.057 23.6522 143.329 23.7908 142.691 24.0218C142.782 24.299 142.782 24.6223 142.782 25.0381V33.6305L144.968 34.693L144.741 35.7555H136.133L136.36 34.5544L138.455 33.4919V23.7446L136.315 22.405Z" fill="black"/>
<path d="M166.192 29.5189C166.556 28.8722 167.148 28.364 167.968 27.9944C168.469 27.7635 169.107 27.5787 169.79 27.4863C170.473 27.3939 171.202 27.3477 171.931 27.3477C172.887 27.3477 173.752 27.3939 174.436 27.5325V26.701C174.436 24.4374 174.026 23.0515 173.251 22.4972C173.069 22.3586 172.842 22.2662 172.568 22.22C172.295 22.1738 171.976 22.1276 171.657 22.1276C171.384 22.1276 171.111 22.1738 170.838 22.22L170.382 24.8993C170.154 25.1303 169.881 25.3151 169.562 25.4999C169.244 25.6847 169.016 25.777 168.834 25.777C168.606 25.777 168.242 25.6385 167.832 25.3151C167.422 24.9917 167.012 24.6684 166.693 24.2526C166.374 23.8368 166.192 23.4673 166.192 23.1439C166.192 22.8667 166.42 22.6357 166.83 22.3124C167.24 22.0352 167.741 21.8042 168.242 21.5732C169.152 21.2037 170.2 20.9727 171.339 20.7879C172.523 20.6031 173.434 20.5107 174.162 20.5107C175.802 20.5107 176.941 20.9265 177.669 21.758C178.398 22.5895 178.762 23.7444 178.762 25.1765V32.614C179.036 33.0298 179.4 33.3531 179.81 33.6303C180.265 33.9075 180.766 34.0923 181.404 34.277L181.222 35.201C179.992 35.8015 178.535 36.1249 176.941 36.1249C176.667 35.6167 176.348 35.1086 176.03 34.739C175.711 34.3694 175.301 33.9999 174.846 33.6765C174.299 34.4156 173.661 34.97 172.842 35.4319C172.022 35.8939 171.111 36.1249 170.018 36.1249C168.97 36.1249 168.15 35.8939 167.467 35.4781C166.83 35.0624 166.329 34.5542 166.055 33.9075C165.782 33.2607 165.646 32.614 165.646 31.9673C165.646 30.9972 165.828 30.1656 166.192 29.5189ZM171.384 33.8151C171.794 33.8151 172.295 33.7689 172.933 33.6303C173.57 33.4917 174.071 33.3531 174.436 33.2145V28.595C173.616 28.7336 172.887 28.8722 172.295 29.0569C171.657 29.2417 171.202 29.3803 170.838 29.5651C170.473 29.7499 170.246 29.8885 170.154 29.9809C170.018 30.1656 169.927 30.489 169.927 30.9972C169.927 31.5053 170.018 31.9673 170.245 32.5216C170.428 33.076 170.655 33.4455 170.929 33.6765C171.02 33.7689 171.202 33.8151 171.384 33.8151Z" fill="black"/>
<path d="M181.95 14.4592L182.087 13.7201L188.509 12.7961V33.6766L190.74 34.7391L190.513 35.8016H181.905L182.133 34.6005L184.228 33.5842V15.8451L181.95 14.4592ZM198.483 33.8152L200.578 34.7391L200.305 35.8016H193.564L193.746 34.7853L189.101 27.2092L193.701 22.8206L191.97 22.0353L192.198 20.9728H199.394L199.166 22.1739L197.026 22.9592L193.382 26.2853L198.483 33.8152Z" fill="black"/>
<path d="M212.329 21.2499C213.194 21.7118 213.877 22.3586 214.333 23.1439C214.788 23.9292 215.061 24.8531 215.061 25.8232C215.061 26.6548 214.925 27.3939 214.697 27.9944C214.606 28.1792 214.515 28.3178 214.378 28.4102C214.242 28.5026 214.059 28.5488 213.786 28.5488H205.679C205.77 29.4265 206.043 30.2118 206.453 30.9972C206.863 31.7825 207.319 32.383 207.911 32.845C208.503 33.3069 209.141 33.5379 209.824 33.5379C210.461 33.5379 211.236 33.4455 212.238 33.2607C213.24 33.076 213.877 32.9374 214.196 32.7988L214.469 33.3069C213.832 34.0923 212.966 34.7852 211.873 35.2933C210.78 35.8015 209.642 36.0787 208.457 36.0787C207.228 36.0787 206.089 35.8015 204.996 35.2933C203.948 34.739 203.083 33.9075 202.4 32.7988C201.717 31.6439 201.398 30.258 201.398 28.5488C201.398 27.1167 201.717 25.777 202.354 24.576C202.992 23.3287 203.903 22.3586 205.087 21.6194C206.271 20.8803 207.638 20.5107 209.186 20.5107C210.416 20.5569 211.463 20.7879 212.329 21.2499ZM211.372 26.6086C211.327 25.777 211.099 25.0841 210.78 24.4836C210.416 23.883 210.006 23.4211 209.459 23.1439C208.913 22.8205 208.366 22.6819 207.729 22.6819C207.455 22.6819 207.273 22.6819 207.091 22.7281C206.909 22.7743 206.772 22.8667 206.636 23.0053C206.362 23.3749 206.18 23.883 205.998 24.6222C205.816 25.3613 205.725 26.239 205.679 27.3015L211.372 26.6086Z" fill="black"/>
<path d="M216.792 22.405L216.929 21.6196L222.166 20.7881L223.123 23.5137C223.715 22.4512 224.307 21.712 224.944 21.2501C225.582 20.7881 226.265 20.5571 227.04 20.5571C227.313 20.5571 227.586 20.6033 227.905 20.6957C228.224 20.7881 228.542 20.9267 228.816 21.1115C229.18 21.3425 229.453 21.5734 229.681 21.8506C229.909 22.1278 230 22.405 230 22.6359C230 22.9131 229.818 23.2827 229.499 23.7446C229.18 24.2066 228.816 24.5762 228.36 24.9457C227.95 25.2691 227.586 25.4539 227.313 25.4539C227.085 25.4539 226.857 25.3615 226.539 25.2229C226.265 25.0843 225.992 24.8995 225.81 24.7609L225.537 23.1903C225.218 23.2827 224.808 23.5137 224.398 23.7446C223.943 24.0218 223.624 24.2528 223.35 24.4838V33.6305L227.495 34.6468L227.267 35.7555H216.701L216.929 34.5544L219.024 33.4919V23.7446L216.792 22.405Z" fill="black"/>
<path d="M35.1148 35.5245C43.7228 26.7935 43.8139 12.6114 35.297 3.78804L36.3901 1.20109L35.5703 0L33.4752 2.125L30.3782 5.2663C30.9247 5.72826 31.4713 6.19022 32.0178 6.69837C39.0317 13.8125 39.0317 25.3152 32.0178 32.4293C25.5505 38.9891 15.303 39.4511 8.28911 33.8614L11.3861 30.7201C13.6634 32.4293 16.4416 33.3533 19.3109 33.3533C22.9545 33.3533 26.3703 31.9212 28.9208 29.3342C31.4713 26.7473 32.8832 23.2826 32.8832 19.587H28.5564C28.5564 22.0815 27.6 24.4375 25.8693 26.2391C24.1386 28.0408 21.8158 28.9647 19.3109 28.9647C17.5802 28.9647 15.9406 28.4565 14.4832 27.5788L27.1901 14.6902L28.9208 12.9348L30.2871 11.5489C29.8772 10.9484 29.4218 10.394 28.8752 9.83967C28.3743 9.33152 27.7822 8.86957 27.1901 8.40761C24.9129 6.69837 22.1347 5.77446 19.2653 5.77446C15.6218 5.77446 12.2059 7.20652 9.65545 9.79348C7.10495 12.3804 5.69307 15.8451 5.69307 19.5408C5.69307 22.4973 6.60396 25.269 8.28911 27.5788L5.19208 30.7201L5.10099 30.8125L0 36.0788L1.13861 36.9103L3.7802 35.7554L3.82574 35.8016C7.42376 39.2663 11.8416 41.3451 16.4416 41.9457V47.4429L12.4337 49.0598L12.0693 51H27.099L27.5089 49.106L23.1822 47.4429V41.8071C27.5545 41.0217 31.7446 38.9429 35.1148 35.5245ZM12.8436 12.9348C14.5743 11.1793 16.897 10.163 19.3564 10.163C21.0871 10.163 22.7267 10.6712 24.1842 11.5489L11.4772 24.4375C10.6119 22.9592 10.1109 21.2962 10.1109 19.5408C10.1109 17.0462 11.0673 14.6902 12.8436 12.9348Z" fill="#009D8C"/>
</svg>
