<svg width="65" height="65" viewBox="0 0 65 65" fill="none" xmlns="http://www.w3.org/2000/svg">
<rect width="65" height="65" rx="20" fill="#009D8C"/>
<path d="M44.5243 40.7453C51.7779 33.5621 51.8236 21.9076 44.6695 14.663L45.6042 12.5303L44.9171 11.5701L43.1718 13.2984L43.1705 13.2973L40.5691 15.8738C42.2606 17.1685 43.6532 18.8064 44.6534 20.6775C45.6537 22.5487 46.2386 24.61 46.3688 26.7232C46.4991 28.8365 46.1718 30.9529 45.4088 32.9307C44.6458 34.9085 43.4648 36.7019 41.9449 38.1908C36.5013 43.5819 27.9023 43.9725 21.9885 39.3833L24.6049 36.7923C26.309 38.0113 28.3199 38.7405 30.4159 38.8995C32.512 39.0584 34.6116 38.6409 36.4832 37.693C38.3548 36.7451 39.9256 35.3036 41.0224 33.5276C42.1192 31.7516 42.6992 29.7101 42.6987 27.6282L39.051 27.6277C39.0526 28.9951 38.6859 30.3382 37.9887 31.5185C37.2915 32.6988 36.289 33.6735 35.0847 34.3423C33.8803 35.0111 32.5176 35.3497 31.1371 35.3231C29.7566 35.2966 28.4082 34.9059 27.231 34.1914L37.9087 23.6172L39.3681 22.1719L40.5295 21.0217C39.8274 20.0273 38.9555 19.1619 37.9529 18.4643C35.7557 16.8898 33.0639 16.1421 30.3603 16.3554C27.6568 16.5687 25.1184 17.729 23.2006 19.6282C21.2829 21.5274 20.1112 24.0412 19.8959 26.7186C19.6805 29.396 20.4355 32.0618 22.0255 34.2378L19.4091 36.8288L19.3508 36.8864L19.3453 36.881L15 41.1843L15.9695 41.8649L18.2004 40.906L18.2239 40.9293L18.2255 40.9277C21.115 43.7151 24.8401 45.4984 28.8408 46.0096V50.5058L25.4662 51.8468L25.1608 53.4328H37.8023L38.1453 51.884L34.5036 50.5245V45.8915C38.301 45.2441 41.8022 43.4461 44.5243 40.7453ZM25.7835 22.1861C27.0153 20.9639 28.6271 20.1885 30.3586 19.9851C32.0901 19.7817 33.8403 20.1622 35.3266 21.0652L24.6518 31.6369C23.7404 30.1649 23.3564 28.4317 23.5617 26.717C23.767 25.0023 24.5497 23.4062 25.7835 22.1861H25.7835Z" fill="white"/>
</svg>
