<svg width="20" height="18" viewBox="0 0 20 18" fill="none" xmlns="http://www.w3.org/2000/svg">
<path fill-rule="evenodd" clip-rule="evenodd" d="M17.5242 17.1626C17.5242 17.6251 17.1493 18 16.6868 18H3.29988C2.8374 18 2.46248 17.6251 2.46248 17.1626V10.2307C2.46248 9.76823 2.08756 9.39331 1.62507 9.39331H1.41722C0.649747 9.39331 0.286564 8.44688 0.857021 7.93347L9.43313 0.214968C9.7516 -0.0716556 10.2351 -0.071656 10.5535 0.214967L19.1296 7.93347C19.7001 8.44688 19.3369 9.39331 18.5694 9.39331H18.3616C17.8991 9.39331 17.5242 9.76823 17.5242 10.2307V17.1626ZM10 5.75C10.5967 5.75 11.169 5.98705 11.591 6.40901C12.0129 6.83097 12.25 7.40326 12.25 8C12.25 8.59674 12.0129 9.16903 11.591 9.59099C11.169 10.0129 10.5967 10.25 10 10.25C9.40326 10.25 8.83097 10.0129 8.40901 9.59099C7.98705 9.16903 7.75 8.59674 7.75 8C7.75 7.40326 7.98705 6.83097 8.40901 6.40901C8.83097 5.98705 9.40326 5.75 10 5.75ZM10 12C11.5 12 14.5 12.75 14.5 14.25V15H5.5V14.25C5.5 12.75 8.5 12 10 12Z" fill="#BDBDBD"/>
</svg>
