<svg width="20" height="18" viewBox="0 0 20 18" fill="none" xmlns="http://www.w3.org/2000/svg">
<path d="M7.00425 18C7.46674 18 7.84166 17.6251 7.84166 17.1626V12.3824C7.84166 11.9199 8.21658 11.545 8.67906 11.545H11.3076C11.7701 11.545 12.145 11.9199 12.145 12.3824V17.1626C12.145 17.6251 12.5199 18 12.9824 18H16.6868C17.1493 18 17.5242 17.6251 17.5242 17.1626V10.2307C17.5242 9.76823 17.8991 9.39331 18.3616 9.39331H18.5694C19.3369 9.39331 19.7001 8.44688 19.1296 7.93347L10.5535 0.214967C10.2351 -0.071656 9.7516 -0.0716556 9.43313 0.214968L0.857021 7.93347C0.286564 8.44688 0.649747 9.39331 1.41722 9.39331H1.62507C2.08756 9.39331 2.46248 9.76823 2.46248 10.2307V17.1626C2.46248 17.6251 2.8374 18 3.29988 18H7.00425Z" fill="#BDBDBD"/>
</svg>
