<svg width="20" height="18" viewBox="0 0 20 18" fill="none" xmlns="http://www.w3.org/2000/svg">
<path d="M0.974545 16.5334L9.2102 3.22075L7.76942 0.992111C7.57659 0.693805 7.66194 0.296063 7.96024 0.103231C8.25853 -0.0896013 8.65707 -0.0046585 8.8503 0.294453L9.9952 2.06698L11.1417 0.29405C11.3345 -0.00425596 11.7331 -0.0896013 12.031 0.103231C12.3293 0.296063 12.4146 0.694208 12.2226 0.992514L10.7822 3.22116L19.0175 16.5338C19.203 16.8297 19.2131 17.2005 19.0436 17.506C18.8745 17.812 18.5525 17.9992 18.2035 17.9992H14.5583C14.2294 17.9992 13.9226 17.8313 13.7447 17.5548L10.6478 12.7211C10.5052 12.4988 10.2597 12.3648 9.996 12.3648C9.73272 12.3648 9.48676 12.4988 9.34425 12.7215L6.24894 17.5548C6.07181 17.8321 5.76505 18 5.43535 18H1.78893C1.43951 18 1.11745 17.8128 0.948378 17.5064C0.779301 17.2001 0.788963 16.8293 0.974545 16.5334Z" fill="#BDBDBD"/>
</svg>
