<svg width="41" height="46" viewBox="0 0 41 46" fill="none" xmlns="http://www.w3.org/2000/svg">
<path d="M40.8721 20.1553C40.8721 29.8311 34.001 37.9021 24.8721 39.7552L20.8721 45.1553L16.8721 39.7552C7.74311 37.9021 0.87207 29.8311 0.87207 20.1553C0.87207 9.10958 9.82638 0.155273 20.8721 0.155273C31.9178 0.155273 40.8721 9.10958 40.8721 20.1553Z" fill="#009D8C"/>
<path d="M27.9456 13.0832C26.1234 11.2832 23.6345 10.1499 20.8789 10.1499C15.3678 10.1499 10.8789 14.6388 10.8789 20.1499C10.8789 22.9055 12.0122 25.3944 13.8122 27.2166C15.6345 29.0166 18.1234 30.1499 20.8789 30.1499C23.6345 30.1499 26.1234 29.0166 27.9456 27.2166C29.7456 25.3944 30.8789 22.9055 30.8789 20.1499C30.8789 17.3944 29.7456 14.9055 27.9456 13.0832ZM26.3678 15.5277L23.1011 22.3721L16.2567 25.6388C16.1678 25.6832 16.0789 25.7055 15.9678 25.7055C15.79 25.7055 15.6345 25.6388 15.5011 25.5055C15.3011 25.3055 15.2567 25.0166 15.3678 24.7499L18.6567 17.9277L25.5011 14.6388C25.7456 14.5277 26.0567 14.5721 26.2345 14.7721C26.4345 14.9721 26.4789 15.261 26.3678 15.5277ZM22.2122 20.1499C22.2122 20.8832 21.6122 21.4832 20.8789 21.4832C20.1456 21.4832 19.5456 20.8832 19.5456 20.1499C19.5456 19.4166 20.1456 18.8166 20.8789 18.8166C21.6122 18.8166 22.2122 19.4166 22.2122 20.1499Z" fill="white"/>
</svg>
