<svg width="41" height="46" viewBox="0 0 41 46" fill="none" xmlns="http://www.w3.org/2000/svg">
<path d="M40.0068 20.5566C40.0068 30.2325 33.1358 38.3035 24.0068 40.1566L20.0068 45.5567L16.0068 40.1566C6.87787 38.3035 0.00683594 30.2325 0.00683594 20.5566C0.00683594 9.51095 8.96114 0.556641 20.0068 0.556641C31.0525 0.556641 40.0068 9.51095 40.0068 20.5566Z" fill="#E6F5F4"/>
<path d="M27.0823 13.4846C25.2601 11.6846 22.7712 10.5513 20.0156 10.5513C14.5045 10.5513 10.0156 15.0402 10.0156 20.5513C10.0156 23.3068 11.149 25.7957 12.949 27.6179C14.7712 29.4179 17.2601 30.5513 20.0156 30.5513C22.7712 30.5513 25.2601 29.4179 27.0823 27.6179C28.8823 25.7957 30.0156 23.3068 30.0156 20.5513C30.0156 17.7957 28.8823 15.3068 27.0823 13.4846ZM25.5045 15.9291L22.2379 22.7735L15.3934 26.0402C15.3045 26.0846 15.2156 26.1068 15.1045 26.1068C14.9267 26.1068 14.7712 26.0402 14.6378 25.9068C14.4378 25.7068 14.3934 25.4179 14.5045 25.1513L17.7934 18.3291L24.6379 15.0402C24.8823 14.929 25.1934 14.9735 25.3712 15.1735C25.5712 15.3735 25.6156 15.6624 25.5045 15.9291ZM21.349 20.5513C21.349 21.2846 20.749 21.8846 20.0156 21.8846C19.2823 21.8846 18.6823 21.2846 18.6823 20.5513C18.6823 19.8179 19.2823 19.2179 20.0156 19.2179C20.749 19.2179 21.349 19.8179 21.349 20.5513Z" fill="#009D8C"/>
</svg>
