<svg width="20" height="19" viewBox="0 0 20 19" fill="none" xmlns="http://www.w3.org/2000/svg">
<path d="M8.50027 0C6.56027 0 4.85027 1.24 4.23027 3.08C3.25275 3.26808 2.38062 3.81424 1.78463 4.61155C1.18864 5.40887 0.911694 6.39993 1.00802 7.39071C1.10434 8.38148 1.567 9.30064 2.30542 9.96822C3.04383 10.6358 4.00483 11.0037 5.00027 11V19H16.0003V17H19.0003C19.5503 17 20.0003 16.55 20.0003 16V8C20.0003 7.45 19.5503 7 19.0003 7H17.0003V5C17.0003 2.79 15.2103 1 13.0003 1H11.3203C10.5003 0.35 9.53027 0 8.50027 0ZM8.50027 2C9.29027 2 10.0303 2.37 10.5003 3H13.0003C13.5307 3 14.0394 3.21071 14.4145 3.58579C14.7896 3.96086 15.0003 4.46957 15.0003 5H11.0003C9.00027 5 8.32027 6.13 7.50027 7.63C6.68027 9.13 5.00027 9 5.00027 9C3.89027 9 3.00027 8.11 3.00027 7C3.00027 6.46957 3.21098 5.96086 3.58606 5.58579C3.96113 5.21071 4.46984 5 5.00027 5H6.00027V4.5C6.00027 3.83696 6.26366 3.20107 6.7325 2.73223C7.20134 2.26339 7.83723 2 8.50027 2ZM16.0003 9H18.0003V15H16.0003V9Z" fill="#BDBDBD"/>
</svg>
