<svg width="19" height="20" viewBox="0 0 19 20" fill="none" xmlns="http://www.w3.org/2000/svg">
<path d="M3.00037 19.9996C1.68037 19.9996 1.15037 17.6396 1.04037 16.6996C0.921947 15.787 1.0319 14.8593 1.36037 13.9996C1.50473 13.5906 1.75305 13.2261 2.08092 12.9421C2.40878 12.658 2.80491 12.4642 3.23037 12.3796C4.40037 12.1796 5.23037 12.8796 6.29037 13.1196C6.48949 13.1835 6.70177 13.1947 6.90651 13.1522C7.11125 13.1096 7.30146 13.0147 7.45859 12.8767C7.61572 12.7387 7.7344 12.5623 7.80307 12.3648C7.87173 12.1673 7.88803 11.9553 7.85037 11.7496C7.41037 10.0296 4.28037 9.99962 3.00037 9.99962C3.00037 8.13962 5.04037 7.89962 6.50037 8.03962C7.3665 8.12328 8.21935 8.31131 9.04037 8.59962C9.54037 8.76962 10.1204 9.19962 10.6704 9.15962C11.5004 9.08962 11.6704 8.22962 11.3104 7.59962C10.4404 6.11962 7.97037 5.99962 6.50037 5.99962C6.50037 3.99962 8.23037 3.61962 9.89037 3.91962C10.7475 4.08819 11.5828 4.35321 12.3804 4.70962C12.8904 4.92962 13.5004 5.34962 14.0604 5.15962C15.5004 4.71962 14.0004 3.17962 13.3604 2.80962C12.9112 2.56175 12.4346 2.3671 11.9404 2.22962C11.4004 2.06962 10.7404 2.12962 11.2304 1.49962C11.9966 0.823633 12.9472 0.391852 13.9604 0.259618C15.8504 -0.180382 18.4604 -0.260382 18.9204 2.11962C19.0737 3.37617 18.7721 4.64608 18.0704 5.69962C16.2074 8.88626 13.901 11.792 11.2204 14.3296C9.80053 15.7851 8.26187 17.1197 6.62037 18.3196C5.62037 19.0396 4.30037 19.9996 3.00037 19.9996Z" fill="#BDBDBD"/>
</svg>
