<svg width="22" height="20" viewBox="0 0 22 20" fill="none" xmlns="http://www.w3.org/2000/svg">
<path d="M6.59042 11.2181L2.05145 6.68994C1.2399 5.87606 0.78418 4.77359 0.78418 3.62424C0.78418 2.47489 1.2399 1.37242 2.05145 0.558538L9.65613 8.14155L6.59042 11.2181ZM13.9351 9.25733L12.3427 10.8498L19.7957 18.3028L18.2683 19.8302L10.8152 12.3772L3.36223 19.8302L1.83479 18.3028L12.4077 7.7299C11.6385 6.07247 12.1802 3.7434 13.9026 2.02097C15.9717 -0.0589362 18.9399 -0.448919 20.5215 1.13268C22.1139 2.72511 21.7239 5.69332 19.644 7.7624C17.9216 9.48482 15.5925 10.0265 13.9351 9.25733Z" fill="#BDBDBD"/>
</svg>

