<svg width="21" height="22" viewBox="0 0 21 22" fill="none" xmlns="http://www.w3.org/2000/svg">
<path d="M19.1604 11.7302C19.8255 11.0661 20.3327 10.2609 20.6446 9.37435C20.9565 8.48776 21.0651 7.5424 20.9623 6.60818C20.8596 5.67397 20.5482 4.7748 20.0511 3.97718C19.5539 3.17956 18.8839 2.5039 18.0904 2.00017C16.0804 0.670174 13.3904 0.660174 11.3604 1.97017C9.60042 3.10017 8.63042 4.86017 8.46042 6.68017C8.33042 8.00017 7.83042 9.23017 6.91042 10.1502L6.88042 10.1802C5.72042 11.3402 5.72042 13.1102 6.81042 14.1902L7.80042 15.1802C8.32435 15.7037 9.03473 15.9979 9.77542 15.9979C10.5161 15.9979 11.2265 15.7037 11.7504 15.1802C12.7204 14.2102 14.0004 13.6802 15.3904 13.5302C16.7604 13.3802 18.1004 12.7802 19.1604 11.7302V11.7302ZM5.26042 18.8602C5.53042 19.4202 5.44042 20.1002 4.97042 20.5602C4.76687 20.7668 4.50743 20.9095 4.22393 20.9708C3.94043 21.0321 3.64521 21.0094 3.37446 20.9053C3.10372 20.8013 2.86923 20.6205 2.69976 20.3851C2.53029 20.1497 2.43321 19.8699 2.42042 19.5802C2.13065 19.5674 1.85092 19.4703 1.61552 19.3008C1.38013 19.1314 1.19932 18.8969 1.09527 18.6261C0.991218 18.3554 0.968451 18.0602 1.02976 17.7767C1.09107 17.4932 1.2338 17.2337 1.44042 17.0302C1.90042 16.5702 2.59042 16.4702 3.14042 16.7402L5.62042 14.3102C5.76042 14.5002 5.92042 14.7202 6.10042 14.9002L7.09042 15.8902C7.30042 16.0902 7.50042 16.2602 7.76042 16.4102L5.26042 18.8602V18.8602Z" fill="#BDBDBD"/>
</svg>
