<svg width="18" height="20" viewBox="0 0 18 20" fill="none" xmlns="http://www.w3.org/2000/svg">
<path d="M9 13C8.46957 13 7.96086 12.7893 7.58579 12.4142C7.21071 12.0391 7 11.5304 7 11C7 10.4696 7.21071 9.96086 7.58579 9.58579C7.96086 9.21071 8.46957 9 9 9C9.53043 9 10.0391 9.21071 10.4142 9.58579C10.7893 9.96086 11 10.4696 11 11C11 11.5304 10.7893 12.0391 10.4142 12.4142C10.0391 12.7893 9.53043 13 9 13ZM4 5C4 3.89 4.89 3 6 3C6.53043 3 7.03914 3.21071 7.41421 3.58579C7.78929 3.96086 8 4.46957 8 5C8 5.53043 7.78929 6.03914 7.41421 6.41421C7.03914 6.78929 6.53043 7 6 7C5.46957 7 4.96086 6.78929 4.58579 6.41421C4.21071 6.03914 4 5.53043 4 5ZM9 0C5.43 0 2.23 1.54 0 4L9 20L18 4C15.78 1.54 12.57 0 9 0Z" fill="#BDBDBD"/>
</svg>
