<svg width="9" height="20" viewBox="0 0 9 20" fill="none" xmlns="http://www.w3.org/2000/svg">
<path d="M8 8L7.8 9H5.5C5.36739 9 5.24021 9.05268 5.14645 9.14645C5.05268 9.24021 5 9.36739 5 9.5C5 9.63261 5.05268 9.75979 5.14645 9.85355C5.24021 9.94732 5.36739 10 5.5 10H7.6L6.6 15H4.5C4.36739 15 4.24021 15.0527 4.14645 15.1464C4.05268 15.2402 4 15.3674 4 15.5C4 15.6326 4.05268 15.7598 4.14645 15.8536C4.24021 15.9473 4.36739 16 4.5 16H6.4L6 18C6 18.5304 5.78929 19.0391 5.41421 19.4142C5.03914 19.7893 4.53043 20 4 20C3.46957 20 2.96086 19.7893 2.58579 19.4142C2.21071 19.0391 2 18.5304 2 18L1 13H2.5C2.63261 13 2.75979 12.9473 2.85355 12.8536C2.94732 12.7598 3 12.6326 3 12.5C3 12.3674 2.94732 12.2402 2.85355 12.1464C2.75979 12.0527 2.63261 12 2.5 12H0.8L0 8C0 6.8 0.93 5.77 2.29 5.29L0.9 3.28C0.825423 3.17179 0.772976 3.0499 0.745676 2.92135C0.718376 2.79279 0.716762 2.66011 0.740925 2.53093C0.765088 2.40175 0.814553 2.27862 0.886474 2.16862C0.958394 2.05863 1.05135 1.96394 1.16 1.89C1.26765 1.81506 1.38903 1.76208 1.51717 1.73409C1.64532 1.7061 1.77773 1.70364 1.90682 1.72686C2.03592 1.75008 2.15918 1.79852 2.26954 1.86941C2.3799 1.9403 2.4752 2.03225 2.55 2.14L3 2.8V1C3 0.734784 3.10536 0.48043 3.29289 0.292893C3.48043 0.105357 3.73478 0 4 0C4.26522 0 4.51957 0.105357 4.70711 0.292893C4.89464 0.48043 5 0.734784 5 1V3.28L6.5 1.54C6.83 1.12 7.47 1.07 7.89 1.43C8.31 1.78 8.36 2.41 8 2.84L5.87 5.35C7.14 5.85 8 6.85 8 8Z" fill="#BDBDBD"/>
</svg>
