<svg width="44" height="41" viewBox="0 0 44 41" fill="none" xmlns="http://www.w3.org/2000/svg">
<g filter="url(#filter0_dd)">
<path d="M32.0961 10.0132C30.8537 8.71499 29.149 8 27.2956 8C25.9102 8 24.6415 8.42197 23.5245 9.25409C22.9609 9.67412 22.4503 10.188 22 10.7878C21.5499 10.1882 21.0391 9.67412 20.4753 9.25409C19.3585 8.42197 18.0898 8 16.7044 8C14.851 8 13.1461 8.71499 11.9037 10.0132C10.6762 11.2962 10 13.049 10 14.9489C10 16.9044 10.7564 18.6945 12.3804 20.5824C13.8331 22.2711 15.9211 23.9855 18.339 25.9706C19.1646 26.6486 20.1005 27.417 21.0722 28.2355C21.3289 28.4522 21.6583 28.5714 22 28.5714C22.3415 28.5714 22.6711 28.4522 22.9274 28.2359C23.8992 27.4172 24.8356 26.6484 25.6616 25.9701C28.0791 23.9853 30.1671 22.2711 31.6198 20.5822C33.2438 18.6945 34 16.9044 34 14.9488C34 13.049 33.3238 11.2962 32.0961 10.0132Z" fill="#E0E0E0"/>
<path d="M22 11.5378C21.764 11.5378 21.5418 11.4267 21.4002 11.238C20.9902 10.6919 20.5296 10.2298 20.0272 9.85553L20.0272 9.8555C19.0391 9.1193 17.9274 8.75 16.7044 8.75C15.0484 8.75 13.5416 9.3865 12.4457 10.5317L22 11.5378ZM22 11.5378C22.2359 11.5378 22.4581 11.4268 22.5998 11.2381M22 11.5378L22.5998 11.2381M22.5998 11.2381C23.0099 10.6917 23.4704 10.2298 23.9727 9.85546C24.9609 9.11927 26.0727 8.75 27.2956 8.75C28.9516 8.75 30.4582 9.38651 31.5542 10.5317C32.6385 11.6648 33.25 13.2274 33.25 14.9488C33.25 16.6803 32.591 18.3032 31.0512 20.0931L31.0512 20.0931C29.6502 21.7219 27.6206 23.3913 25.1857 25.3904L25.1856 25.3905L25.1645 25.4078C24.344 26.0816 23.4118 26.8471 22.4442 27.6623L22.4438 27.6627C22.3254 27.7626 22.168 27.8214 22 27.8214C21.832 27.8214 21.6748 27.7627 21.5559 27.6624L21.5554 27.6619C20.5807 26.8409 19.6424 26.0705 18.8179 25.3934L18.8149 25.391L18.8149 25.391M22.5998 11.2381L18.8149 25.391M18.8149 25.391C16.3796 23.3915 14.35 21.722 12.949 20.0933C11.4092 18.3032 10.75 16.6802 10.75 14.9489C10.75 13.2274 11.3615 11.6648 12.4456 10.5317L18.8149 25.391Z" stroke="white" stroke-width="1.5" stroke-linejoin="round"/>
</g>
<defs>
<filter id="filter0_dd" x="0" y="0" width="44" height="40.5714" filterUnits="userSpaceOnUse" color-interpolation-filters="sRGB">
<feFlood flood-opacity="0" result="BackgroundImageFix"/>
<feColorMatrix in="SourceAlpha" type="matrix" values="0 0 0 0 0 0 0 0 0 0 0 0 0 0 0 0 0 0 127 0"/>
<feOffset dy="1"/>
<feGaussianBlur stdDeviation="1"/>
<feColorMatrix type="matrix" values="0 0 0 0 0 0 0 0 0 0 0 0 0 0 0 0 0 0 0.3 0"/>
<feBlend mode="normal" in2="BackgroundImageFix" result="effect1_dropShadow"/>
<feColorMatrix in="SourceAlpha" type="matrix" values="0 0 0 0 0 0 0 0 0 0 0 0 0 0 0 0 0 0 127 0"/>
<feOffset dy="2"/>
<feGaussianBlur stdDeviation="5"/>
<feColorMatrix type="matrix" values="0 0 0 0 0 0 0 0 0 0 0 0 0 0 0 0 0 0 0.3 0"/>
<feBlend mode="normal" in2="effect1_dropShadow" result="effect2_dropShadow"/>
<feBlend mode="normal" in="SourceGraphic" in2="effect2_dropShadow" result="shape"/>
</filter>
</defs>
</svg>
