<svg width="146" height="27" viewBox="0 0 146 27" fill="none" xmlns="http://www.w3.org/2000/svg">
<path d="M9.62421 7.90664C10.3541 8.29629 10.9303 8.8418 11.3145 9.50421C11.6987 10.1666 11.9292 10.9459 11.9292 11.7642C11.9292 12.4656 11.8139 13.089 11.6218 13.5955C11.545 13.7514 11.4682 13.8683 11.3529 13.9462C11.2377 14.0242 11.084 14.0631 10.8535 14.0631H4.0155C4.09233 14.8035 4.32283 15.4659 4.66858 16.1283C5.01432 16.7907 5.39848 17.2972 5.89788 17.6869C6.39729 18.0765 6.93511 18.2713 7.51134 18.2713C8.04917 18.2713 8.70224 18.1934 9.54738 18.0375C10.3541 17.8817 10.9304 17.7648 11.1993 17.6479L11.4298 18.0765C10.8919 18.7389 10.162 19.3234 9.24006 19.752C8.31808 20.1806 7.35768 20.4144 6.35887 20.4144C5.32164 20.4144 4.36125 20.1806 3.43927 19.752C2.5557 19.2844 1.8258 18.5831 1.24957 17.6479C0.673328 16.6738 0.404419 15.5048 0.404419 14.0631C0.404419 12.8552 0.673332 11.7252 1.21115 10.7121C1.74897 9.66007 2.51729 8.8418 3.5161 8.21836C4.51491 7.59492 5.66739 7.2832 6.97353 7.2832C8.01075 7.32217 8.89431 7.51699 9.62421 7.90664ZM8.77907 12.4266C8.74065 11.7252 8.54857 11.1407 8.27966 10.6342C7.97233 10.1276 7.62659 9.738 7.1656 9.50421C6.70461 9.23145 6.24362 9.11456 5.7058 9.11456C5.47531 9.11456 5.32164 9.11456 5.16798 9.15352C5.01431 9.19249 4.89907 9.27042 4.78382 9.38731C4.55332 9.69903 4.39966 10.1276 4.246 10.7511C4.09234 11.3745 4.01551 12.1149 3.97709 13.0111L8.77907 12.4266Z" fill="black"/>
<path d="M28.1792 19.2453L28.0255 20.1804H20.496L20.6881 19.1673L21.9558 18.5829L19.6125 15.5046L17.3459 18.5829L18.7673 19.2842L18.5752 20.1804H12.9665L13.1586 19.1673L14.9257 18.466L18.5368 14.1019L14.7721 9.23126L12.9281 8.56886L13.1202 7.6337H20.5728L20.3808 8.60782L19.1899 9.1923L21.418 12.3485L23.6845 9.23126L22.2247 8.52989L22.4168 7.6337H27.9487L27.7566 8.68575L26.1816 9.30919L22.4936 13.8291L26.3736 18.5829L28.1792 19.2453Z" fill="black"/>
<path d="M37.7831 25.4796L37.591 26.4148H28.7169L28.909 25.3627L30.6761 24.5055V10.0105L28.8322 8.88053L28.9474 8.21813L33.3652 7.51676L34.172 9.27018C34.9403 8.68571 35.6702 8.21813 36.3617 7.86744C37.0532 7.51676 37.7831 7.32193 38.513 7.32193C39.4349 7.32193 40.2033 7.55572 40.8563 8.06227C41.5094 8.56881 42.0088 9.27018 42.393 10.2053C42.7771 11.1405 42.9308 12.2705 42.9308 13.5563C42.9308 14.7643 42.7003 15.8942 42.2393 16.9463C41.7783 17.9983 41.1636 18.8556 40.3569 19.479C39.9728 19.7907 39.5502 20.0245 39.0892 20.1804C38.6282 20.3752 38.1288 20.4531 37.6294 20.4531C36.9763 20.4531 36.3617 20.3363 35.7854 20.1025C35.2092 19.8687 34.7482 19.5569 34.4409 19.0894V24.5834L37.7831 25.4796ZM34.3256 11.0236V17.6866C34.7098 17.9594 35.2092 18.1152 35.747 18.2321C36.2848 18.349 36.8227 18.388 37.3989 18.388C37.7062 18.388 37.9751 18.349 38.1672 18.2711C38.3593 18.1932 38.513 18.0763 38.6282 17.8815C38.8203 17.6087 38.9739 17.1411 39.0892 16.5956C39.2044 16.0111 39.2813 15.3877 39.2813 14.7253C39.2813 13.7901 39.166 12.9329 38.9355 12.1146C38.705 11.3353 38.3593 10.6729 37.9367 10.1274C37.7831 9.93259 37.6294 9.77673 37.4757 9.6988C37.3221 9.62087 37.13 9.5819 36.9379 9.5819C36.6306 9.5819 36.208 9.62087 35.6702 9.73776C35.1324 9.85466 34.6714 9.97155 34.3256 10.0884C34.2872 10.3222 34.3256 10.634 34.3256 11.0236Z" fill="black"/>
<path d="M44.1983 2.17865L44.3136 1.55521L49.7302 0.775909V18.3881L51.6126 19.2843L51.4205 20.1805H44.1599L44.352 19.1674L46.1191 18.3102V3.3476L44.1983 2.17865Z" fill="black"/>
<path d="M53.6493 10.8288C54.1872 9.77673 54.9555 8.9195 55.9159 8.29606C56.8763 7.67262 57.9903 7.32193 59.2196 7.32193C60.4105 7.32193 61.4862 7.55572 62.4082 8.0233C63.3686 8.49088 64.0985 9.19225 64.6747 10.1274C65.2509 11.0626 65.5198 12.2315 65.5198 13.6343C65.5198 14.8422 65.2509 15.9332 64.7131 16.9853C64.1753 18.0373 63.407 18.8945 62.4466 19.518C61.4862 20.1414 60.4105 20.4531 59.2196 20.4531C58.0288 20.4531 56.9531 20.2194 55.9927 19.7907C55.0323 19.3232 54.264 18.6608 53.7262 17.6866C53.1499 16.7515 52.881 15.5825 52.881 14.1408C52.8042 13.0108 53.0731 11.8808 53.6493 10.8288ZM60.8331 18.5049C61.0636 18.427 61.2557 18.3101 61.3709 18.1542C61.5246 17.9204 61.6783 17.5308 61.7551 16.9463C61.8319 16.3618 61.9088 15.7773 61.9088 15.1539C61.9088 13.946 61.7551 12.8939 61.4478 11.9588C61.1404 11.0236 60.7179 10.3612 60.1416 9.85466C59.6038 9.34811 58.9507 9.11432 58.2592 9.11432C57.6446 9.11432 57.1836 9.27018 56.9531 9.5819C56.7994 9.81569 56.6842 10.2053 56.569 10.7898C56.4537 11.3743 56.4153 11.9588 56.4153 12.5822C56.4153 13.7122 56.5689 14.7253 56.8379 15.6215C57.1068 16.5177 57.5293 17.258 58.0672 17.7646C58.605 18.3101 59.2581 18.5439 60.0264 18.5439C60.3337 18.6218 60.6026 18.5828 60.8331 18.5049Z" fill="black"/>
<path d="M66.9787 8.88053L67.094 8.21813L71.4734 7.51676L72.1649 9.54294C73.9704 8.06227 75.6223 7.32193 77.0437 7.32193C77.6584 7.32193 78.273 7.47779 78.8493 7.82847C79.4255 8.17916 79.8865 8.72467 80.1938 9.50397C81.0005 8.84157 81.8073 8.29606 82.6908 7.90641C83.536 7.51676 84.3043 7.32193 84.919 7.32193C85.7641 7.32193 86.494 7.47779 87.0318 7.82847C87.6081 8.17916 88.0307 8.76364 88.2996 9.54294C88.6069 10.3222 88.7221 11.4133 88.7221 12.7381V18.349L90.7582 19.2063L90.5661 20.1414H83.7665L83.9586 19.1673L85.111 18.2711V13.6343C85.111 11.647 84.8806 10.4002 84.4196 9.97155C84.3427 9.85466 84.2659 9.77673 84.1891 9.73776C84.1122 9.6988 83.997 9.6988 83.8433 9.6988C83.536 9.6988 82.9982 9.73776 82.2683 9.85466C81.5384 9.97155 80.9237 10.1274 80.4243 10.2833C80.5011 10.595 80.578 11.0236 80.578 11.5691C80.6164 12.1146 80.6164 12.8939 80.6164 13.8681V18.388L82.4219 19.2842L82.1914 20.1804H75.6223L75.776 19.2063L76.9285 18.2711V13.5563C76.9285 11.647 76.6595 10.4002 76.1217 9.77673C76.0449 9.6988 75.9296 9.65983 75.8144 9.65983C75.4302 9.65983 74.8924 9.6988 74.2009 9.81569C73.5094 9.93259 72.8948 10.0495 72.357 10.2443C72.4338 10.4781 72.4338 10.7509 72.4338 11.1015V18.349L74.2778 19.2452L74.0857 20.1414H66.8251L67.0172 19.1283L68.7843 18.2321V10.0105L66.9787 8.88053Z" fill="black"/>
<path d="M92.1802 14.8814C92.4875 14.3359 92.987 13.9073 93.6784 13.5955C94.101 13.4007 94.6388 13.2449 95.2151 13.1669C95.7913 13.089 96.406 13.05 97.0206 13.05C97.8274 13.05 98.5573 13.089 99.1335 13.2059V12.5045C99.1335 10.5952 98.7877 9.42628 98.1347 8.9587C97.981 8.8418 97.7889 8.76387 97.5584 8.72491C97.3279 8.68594 97.059 8.64698 96.7901 8.64698C96.5596 8.64698 96.3291 8.68594 96.0986 8.72491L95.7145 10.9849C95.5224 11.1797 95.2919 11.3356 95.023 11.4914C94.7541 11.6473 94.562 11.7252 94.4083 11.7252C94.2163 11.7252 93.9089 11.6083 93.5632 11.3356C93.2175 11.0628 92.8717 10.7901 92.6028 10.4394C92.3339 10.0887 92.1802 9.77696 92.1802 9.50421C92.1802 9.27042 92.3723 9.07559 92.718 8.80284C93.0638 8.56905 93.4864 8.37422 93.9089 8.1794C94.6773 7.86768 95.5608 7.67285 96.5212 7.51699C97.52 7.36113 98.2883 7.2832 98.903 7.2832C100.286 7.2832 101.246 7.63389 101.861 8.33526C102.476 9.03663 102.783 10.0108 102.783 11.2187V17.492C103.013 17.8427 103.321 18.1155 103.667 18.3493C104.051 18.5831 104.473 18.7389 105.011 18.8948L104.857 19.6741C103.82 20.1806 102.591 20.4534 101.246 20.4534C101.016 20.0248 100.747 19.5962 100.478 19.2844C100.209 18.9727 99.8634 18.661 99.4792 18.3882C99.0182 19.0117 98.4804 19.4793 97.7889 19.8689C97.0975 20.2586 96.3291 20.4534 95.4072 20.4534C94.5236 20.4534 93.8321 20.2586 93.2559 19.9079C92.7181 19.5572 92.2955 19.1286 92.065 18.5831C91.8345 18.0376 91.7192 17.492 91.7192 16.9465C91.7192 16.1283 91.8729 15.4269 92.1802 14.8814ZM96.5596 18.5051C96.9054 18.5051 97.328 18.4662 97.8658 18.3493C98.4036 18.2324 98.8262 18.1155 99.1335 17.9986V14.1021C98.442 14.219 97.8273 14.3359 97.3279 14.4917C96.7901 14.6476 96.406 14.7645 96.0986 14.9204C95.7913 15.0762 95.5992 15.1931 95.5224 15.271C95.4072 15.4269 95.3303 15.6996 95.3303 16.1283C95.3303 16.5569 95.4072 16.9465 95.5992 17.4141C95.7529 17.8817 95.945 18.1934 96.1755 18.3882C96.2523 18.4662 96.406 18.5051 96.5596 18.5051Z" fill="black"/>
<path d="M105.472 2.17865L105.588 1.55521L111.004 0.775909V18.3881L112.887 19.2843L112.695 20.1805H105.434L105.626 19.1674L107.393 18.3102V3.3476L105.472 2.17865ZM119.417 18.505L121.184 19.2843L120.954 20.1805H115.268L115.422 19.3233L111.504 12.933L115.384 9.23132L113.924 8.56891L114.116 7.67272H120.186L119.994 8.68581L118.188 9.34821L115.115 12.1537L119.417 18.505Z" fill="black"/>
<path d="M131.095 7.90664C131.825 8.29629 132.401 8.8418 132.785 9.50421C133.169 10.1666 133.4 10.9459 133.4 11.7642C133.4 12.4656 133.285 13.089 133.093 13.5955C133.016 13.7514 132.939 13.8683 132.824 13.9462C132.708 14.0242 132.555 14.0631 132.324 14.0631H125.486C125.563 14.8035 125.794 15.4659 126.139 16.1283C126.485 16.7907 126.869 17.2972 127.369 17.6869C127.868 18.0765 128.406 18.2713 128.982 18.2713C129.52 18.2713 130.173 18.1934 131.018 18.0375C131.863 17.8817 132.401 17.7648 132.67 17.6479L132.9 18.0765C132.363 18.7389 131.633 19.3234 130.711 19.752C129.789 20.1806 128.828 20.4144 127.83 20.4144C126.792 20.4144 125.832 20.1806 124.91 19.752C124.026 19.2844 123.297 18.5831 122.72 17.6479C122.144 16.6738 121.875 15.5048 121.875 14.0631C121.875 12.8552 122.144 11.7252 122.682 10.7121C123.22 9.66007 123.988 8.8418 124.987 8.21836C125.986 7.59492 127.138 7.2832 128.444 7.2832C129.481 7.32217 130.365 7.51699 131.095 7.90664ZM130.288 12.4266C130.25 11.7252 130.058 11.1407 129.789 10.6342C129.481 10.1276 129.136 9.738 128.675 9.50421C128.214 9.23145 127.753 9.11456 127.215 9.11456C126.984 9.11456 126.831 9.11456 126.677 9.15352C126.523 9.19249 126.408 9.27042 126.293 9.38731C126.062 9.69903 125.909 10.1276 125.755 10.7511C125.601 11.3745 125.525 12.1149 125.486 13.0111L130.288 12.4266Z" fill="black"/>
<path d="M134.86 8.88053L134.975 8.21813L139.393 7.51676L140.199 9.81569C140.699 8.9195 141.198 8.29606 141.736 7.90641C142.274 7.51676 142.85 7.32193 143.503 7.32193C143.734 7.32193 143.964 7.36089 144.233 7.43882C144.502 7.51675 144.771 7.63365 145.001 7.78951C145.309 7.98434 145.539 8.17916 145.731 8.41295C145.923 8.64674 146 8.88053 146 9.07536C146 9.30915 145.846 9.62087 145.578 10.0105C145.309 10.4002 145.001 10.7119 144.617 11.0236C144.271 11.2964 143.964 11.4522 143.734 11.4522C143.542 11.4522 143.349 11.3743 143.081 11.2574C142.85 11.1405 142.62 10.9846 142.466 10.8677L142.235 9.54294C141.966 9.62087 141.621 9.81569 141.275 10.0105C140.891 10.2443 140.622 10.4391 140.391 10.634V18.349L143.887 19.2063L143.695 20.1414H134.783L134.975 19.1283L136.742 18.2321V10.0105L134.86 8.88053Z" fill="black"/>
</svg>
