<svg viewBox="0 0 36 43" fill="none" xmlns="http://www.w3.org/2000/svg">
<path d="M24.4118 13.7028C23.7545 13.6924 22.9635 14.0973 22.3042 14.7566C21.2248 15.7281 20.1644 16.8172 19.1426 17.9181L10.712 16.232L10.0797 17.4966L16.4027 20.6581L12.8196 24.8734C11.998 24.6032 10.712 24.2957 10.712 25.295C10.712 25.4925 10.7614 25.6959 10.9227 25.9273L13.4519 28.4564C13.6833 28.6178 13.8867 28.6672 14.0842 28.6672C15.0835 28.6672 14.776 27.3812 14.5058 26.5595L18.7211 22.9765L21.8826 29.2995L23.1472 28.6672L21.4611 20.2365C22.562 19.2147 23.6511 18.1544 24.6226 17.075C25.2819 16.4157 25.6868 15.6247 25.6764 14.9674C25.6708 14.6133 25.5591 14.2761 25.3324 14.0468C25.1031 13.8201 24.7659 13.7084 24.4118 13.7028Z" fill="#006A75"/>
<path fill-rule="evenodd" clip-rule="evenodd" d="M13.9801 32.0299C14.6252 31.5999 15.4967 31.7742 15.9267 32.4192L19.0461 37.0983C19.4761 37.7434 19.3018 38.6149 18.6568 39.0449L13.9777 42.1643C13.3327 42.5943 12.4611 42.42 12.0311 41.775C11.6011 41.1299 11.7754 40.2584 12.4204 39.8284L15.9315 37.4876L13.5908 33.9765C13.1608 33.3315 13.3351 32.4599 13.9801 32.0299Z" fill="#006A75"/>
<path fill-rule="evenodd" clip-rule="evenodd" d="M21.7744 10.9705C21.1294 11.4005 20.2578 11.2262 19.8278 10.5812L16.7084 5.90209C16.2784 5.25704 16.4527 4.38551 17.0977 3.95548L21.7768 0.836101C22.4219 0.406067 23.2934 0.580373 23.7234 1.22542C24.1535 1.87047 23.9792 2.742 23.3341 3.17203L19.823 5.51277L22.1637 9.02387C22.5938 9.66892 22.4195 10.5405 21.7744 10.9705Z" fill="#006A75"/>
<path fill-rule="evenodd" clip-rule="evenodd" d="M16.4744 5.12323C16.4744 4.34798 17.1029 3.71951 17.8781 3.71951C27.698 3.71951 35.6586 11.6801 35.6586 21.5C35.6586 29.5567 30.3012 36.3584 22.9576 38.5439C22.2146 38.7651 21.4329 38.342 21.2118 37.599C20.9907 36.8559 21.4137 36.0743 22.1568 35.8531C28.3427 34.0121 32.8512 28.2807 32.8512 21.5C32.8512 13.2306 26.1475 6.52695 17.8781 6.52695C17.1029 6.52695 16.4744 5.89848 16.4744 5.12323ZM14.5445 5.401C14.7656 6.14404 14.3425 6.92567 13.5995 7.14681C7.41357 8.98783 2.9051 14.7192 2.9051 21.5C2.9051 29.7694 9.60876 36.473 17.8781 36.473C18.6534 36.473 19.2819 37.1015 19.2819 37.8767C19.2819 38.652 18.6534 39.2804 17.8781 39.2804C8.05825 39.2804 0.0976562 31.3199 0.0976562 21.5C0.0976562 13.4433 5.45506 6.64157 12.7986 4.45601C13.5417 4.23487 14.3233 4.65796 14.5445 5.401Z" fill="#006A75"/>
</svg>
