<svg width="18" height="18" viewBox="0 0 18 18" fill="none" xmlns="http://www.w3.org/2000/svg">
<path d="M13.8906 17.5L15.3002 16.0905L13.1859 6.92844L17.0621 3.0522C17.3425 2.77183 17.5 2.39156 17.5 1.99504C17.5 1.59853 17.3425 1.21826 17.0621 0.937888C16.7817 0.657513 16.4015 0.5 16.005 0.5C15.6084 0.5 15.2282 0.657513 14.9478 0.937888L11.0716 4.81413L1.90954 2.69982L0.5 4.10936L7.90009 7.9856L4.02385 11.8618L1.55716 11.5094L0.5 12.5666L3.67147 14.3285L5.4334 17.5L6.49055 16.4428L6.13817 13.9761L10.0144 10.0999L13.8906 17.5Z" fill="#BDBDBD"/>
</svg>
