<svg width="22" height="24" viewBox="0 0 22 24" fill="none" xmlns="http://www.w3.org/2000/svg">
<path d="M14.7503 7.52303C14.3729 7.51706 13.9188 7.74952 13.5402 8.1281C12.9205 8.68585 12.3116 9.3112 11.725 9.94332L6.88438 8.97521L6.52134 9.70129L10.1518 11.5165L8.09453 13.9368C7.62279 13.7816 6.88439 13.6051 6.88439 14.1788C6.88438 14.2922 6.91276 14.409 7.0054 14.5419L8.45756 15.994C8.5904 16.0867 8.70722 16.115 8.8206 16.115C9.39433 16.115 9.21779 15.3766 9.06263 14.9049L11.4829 12.8476L13.2981 16.4781L14.0242 16.115L13.0561 11.2745C13.6882 10.6878 14.3136 10.079 14.8713 9.45924C15.2499 9.08066 15.4824 8.62652 15.4764 8.2491C15.4732 8.04578 15.409 7.85219 15.2789 7.72056C15.1472 7.59038 14.9536 7.52625 14.7503 7.52303Z" fill="#BDBDBD"/>
<path fill-rule="evenodd" clip-rule="evenodd" d="M8.76083 18.0458C9.13119 17.7989 9.63159 17.8989 9.8785 18.2693L11.6695 20.9559C11.9164 21.3262 11.8164 21.8266 11.446 22.0735L8.75945 23.8646C8.38908 24.1115 7.88868 24.0114 7.64177 23.641C7.39486 23.2707 7.49494 22.7703 7.86531 22.5233L9.88125 21.1794L8.53729 19.1634C8.29038 18.7931 8.39046 18.2927 8.76083 18.0458Z" fill="#BDBDBD"/>
<path fill-rule="evenodd" clip-rule="evenodd" d="M13.236 5.95423C12.8657 6.20114 12.3653 6.10106 12.1184 5.7307L10.3273 3.04415C10.0804 2.67379 10.1805 2.17339 10.5509 1.92648L13.2374 0.135447C13.6078 -0.111462 14.1082 -0.0113824 14.3551 0.358981C14.602 0.729345 14.5019 1.22974 14.1315 1.47665L12.1156 2.82062L13.4596 4.83656C13.7065 5.20693 13.6064 5.70732 13.236 5.95423Z" fill="#BDBDBD"/>
<path fill-rule="evenodd" clip-rule="evenodd" d="M10.193 2.59696C10.193 2.15184 10.5538 1.79099 10.9989 1.79099C16.6371 1.79099 21.2078 6.36167 21.2078 11.9999C21.2078 16.6257 18.1318 20.531 13.9154 21.7859C13.4887 21.9129 13.04 21.6699 12.913 21.2433C12.786 20.8167 13.0289 20.3679 13.4556 20.2409C17.0073 19.1839 19.5959 15.8931 19.5959 11.9999C19.5959 7.25191 15.7469 3.40292 10.9989 3.40292C10.5538 3.40292 10.193 3.04208 10.193 2.59696ZM9.08486 2.75644C9.21183 3.18307 8.96891 3.63185 8.54228 3.75882C4.99056 4.81586 2.40197 8.10662 2.40197 11.9999C2.40197 16.7478 6.25096 20.5968 10.9989 20.5968C11.444 20.5968 11.8049 20.9577 11.8049 21.4028C11.8049 21.8479 11.444 22.2088 10.9989 22.2088C5.36071 22.2088 0.790039 17.6381 0.790039 11.9999C0.790039 7.37403 3.86606 3.46873 8.08248 2.21386C8.5091 2.08689 8.95788 2.32981 9.08486 2.75644Z" fill="#BDBDBD"/>
</svg>
