<svg width="40" height="40" viewBox="0 0 40 40" fill="none" xmlns="http://www.w3.org/2000/svg">
<rect width="40" height="40" rx="20" fill="#F4E6E6"/>
<path d="M25.4872 13.4545C26.6653 13.4545 27.6363 14.4145 27.6363 15.6363V27.6363C27.6363 28.869 26.6653 29.8181 25.4872 29.8181C25.4872 30.4508 24.9744 30.909 24.3635 30.909C23.8181 30.909 23.2726 30.4508 23.2726 29.8181H16.7272C16.7272 30.4508 16.1817 30.909 15.6363 30.909C15.0253 30.909 14.5126 30.4508 14.5126 29.8181C13.3344 29.8181 12.3635 28.869 12.3635 27.6363V15.6363C12.3635 14.4145 13.3344 13.4545 14.5126 13.4545H16.7272V10.1817C16.7272 9.549 17.229 9.09082 17.8181 9.09082H22.1817C22.7708 9.09082 23.2726 9.549 23.2726 10.1817V13.4545H25.4872ZM21.6363 13.4545V10.7272H18.3635V13.4545H21.6363ZM16.4544 16.7272C16.0026 16.7272 15.6363 17.0935 15.6363 17.5454V25.7272C15.6363 26.1791 16.0026 26.5454 16.4544 26.5454C16.9063 26.5454 17.2726 26.1791 17.2726 25.7272V17.5454C17.2726 17.0935 16.9063 16.7272 16.4544 16.7272ZM23.5453 16.7272C23.0935 16.7272 22.7272 17.0935 22.7272 17.5454V25.7272C22.7272 26.1791 23.0935 26.5454 23.5453 26.5454C23.9972 26.5454 24.3635 26.1791 24.3635 25.7272V17.5454C24.3635 17.0935 23.9972 16.7272 23.5453 16.7272ZM19.9999 16.7272C19.548 16.7272 19.1817 17.0935 19.1817 17.5454V25.7272C19.1817 26.1791 19.548 26.5454 19.9999 26.5454C20.4518 26.5454 20.8181 26.1791 20.8181 25.7272V17.5454C20.8181 17.0935 20.4518 16.7272 19.9999 16.7272Z" fill="#A9474A"/>
</svg>
