<svg width="35" height="35" viewBox="0 0 35 35" fill="none" xmlns="http://www.w3.org/2000/svg">
<rect width="35" height="35" rx="5" fill="#E6F5F4"/>
<path d="M14.9801 16.6596H13.3001V18.3396H14.9801V16.6596ZM18.3401 16.6596H16.6601V18.3396H18.3401V16.6596ZM21.7001 16.6596H20.0201V18.3396H21.7001V16.6596ZM23.3801 10.7796H22.5401V9.09961H20.8601V10.7796H14.1401V9.09961H12.4601V10.7796H11.6201C11.1745 10.7796 10.7472 10.9566 10.4321 11.2717C10.1171 11.5867 9.94006 12.014 9.94006 12.4596V24.2196C9.94006 24.6652 10.1171 25.0925 10.4321 25.4075C10.7472 25.7226 11.1745 25.8996 11.6201 25.8996H23.3801C23.8256 25.8996 24.2529 25.7226 24.568 25.4075C24.8831 25.0925 25.0601 24.6652 25.0601 24.2196V12.4596C25.0601 12.014 24.8831 11.5867 24.568 11.2717C24.2529 10.9566 23.8256 10.7796 23.3801 10.7796ZM23.3801 24.2196H11.6201V14.9796H23.3801V24.2196Z" fill="#009D8C"/>
<path d="M13.3004 20.0195H14.9804V21.6995H13.3004V20.0195Z" fill="#009D8C"/>
<path d="M16.6614 20.0195H18.3414V21.6995H16.6614V20.0195Z" fill="#009D8C"/>
<path d="M20.0184 20.0195H21.6984V21.6995H20.0184V20.0195Z" fill="#009D8C"/>
</svg>
