<svg width="15" height="14" viewBox="0 0 15 14" fill="none" xmlns="http://www.w3.org/2000/svg">
<mask id="path-1-inside-1" fill="white">
<path fill-rule="evenodd" clip-rule="evenodd" d="M2 0C0.89543 0 0 0.89543 0 2V8.96176C0 10.0663 0.89543 10.9618 2 10.9618H3.47144V13.4987C3.47144 13.9133 3.94692 14.1477 4.27581 13.8954L8.09899 10.9618H13C14.1046 10.9618 15 10.0663 15 8.96176V2C15 0.89543 14.1046 0 13 0H2Z"/>
</mask>
<path d="M3.47144 10.9618H4.97144V9.46176H3.47144V10.9618ZM4.27581 13.8954L3.36268 12.7053L3.36267 12.7053L4.27581 13.8954ZM8.09899 10.9618V9.46176H7.58981L7.18585 9.77173L8.09899 10.9618ZM1.5 2C1.5 1.72386 1.72386 1.5 2 1.5V-1.5C0.0670033 -1.5 -1.5 0.0670033 -1.5 2H1.5ZM1.5 8.96176V2H-1.5V8.96176H1.5ZM2 9.46176C1.72386 9.46176 1.5 9.2379 1.5 8.96176H-1.5C-1.5 10.8948 0.0670027 12.4618 2 12.4618V9.46176ZM3.47144 9.46176H2V12.4618H3.47144V9.46176ZM4.97144 13.4987V10.9618H1.97144V13.4987H4.97144ZM3.36267 12.7053C4.02047 12.2006 4.97144 12.6696 4.97144 13.4987H1.97144C1.97144 15.1569 3.87338 16.0949 5.18896 15.0854L3.36267 12.7053ZM7.18585 9.77173L3.36268 12.7053L5.18895 15.0854L9.01213 12.1518L7.18585 9.77173ZM13 9.46176H8.09899V12.4618H13V9.46176ZM13.5 8.96176C13.5 9.2379 13.2761 9.46176 13 9.46176V12.4618C14.933 12.4618 16.5 10.8948 16.5 8.96176H13.5ZM13.5 2V8.96176H16.5V2H13.5ZM13 1.5C13.2761 1.5 13.5 1.72386 13.5 2H16.5C16.5 0.0670041 14.933 -1.5 13 -1.5V1.5ZM2 1.5H13V-1.5H2V1.5Z" fill="#828282" mask="url(#path-1-inside-1)"/>
</svg>
