<svg width="18" height="18" viewBox="0 0 18 18" fill="none" xmlns="http://www.w3.org/2000/svg">
<path fill-rule="evenodd" clip-rule="evenodd" d="M14.7376 16.9125C15.3382 17.5131 16.3119 17.5131 16.9125 16.9125C17.5131 16.3119 17.5131 15.3382 16.9125 14.7376L11.175 9.00006L16.9125 3.26252C17.5131 2.66194 17.5131 1.68819 16.9125 1.0876C16.312 0.48701 15.3382 0.48701 14.7376 1.0876L9.00008 6.82514L3.26241 1.08746C2.66182 0.486874 1.68807 0.486874 1.08748 1.08746C0.486896 1.68805 0.486896 2.6618 1.08748 3.26239L6.82516 9.00006L1.08748 14.7377C0.486897 15.3383 0.486897 16.3121 1.08748 16.9127C1.68807 17.5133 2.66182 17.5133 3.26241 16.9127L9.00008 11.175L14.7376 16.9125Z" fill="#BDBDBD"/>
</svg>
