<svg width="90" height="90" viewBox="0 0 90 90" fill="none" xmlns="http://www.w3.org/2000/svg">
<g opacity="0.3" filter="url(#filter0_d)">
<rect x="20" y="15" width="50" height="50" rx="25" fill="white"/>
</g>
<g filter="url(#filter1_d)">
<path fill-rule="evenodd" clip-rule="evenodd" d="M56.3483 27.6093C56.876 27.6093 57.3039 28.0372 57.3039 28.5649L57.3039 37.1655C57.3039 37.6933 56.876 38.1211 56.3483 38.1211C55.8205 38.1211 55.3926 37.6933 55.3926 37.1655L55.3926 30.872L35.7846 50.48L42.0781 50.48C42.6059 50.48 43.0337 50.9079 43.0337 51.4357C43.0337 51.9634 42.6059 52.3913 42.0781 52.3913L33.4775 52.3913C32.9498 52.3913 32.5219 51.9634 32.5219 51.4357L32.5219 42.8351C32.5219 42.3073 32.9498 41.8795 33.4775 41.8795C34.0053 41.8795 34.4332 42.3073 34.4332 42.8351L34.4332 49.1286L54.0412 29.5206L47.7477 29.5206C47.2199 29.5206 46.7921 29.0927 46.7921 28.5649C46.7921 28.0372 47.2199 27.6093 47.7477 27.6093L56.3483 27.6093Z" fill="white"/>
<path d="M57.3039 28.5649L57.8039 28.5649L57.8039 28.5649L57.3039 28.5649ZM56.3483 27.6093L56.3483 27.1093L56.3483 27.1093L56.3483 27.6093ZM57.3039 37.1655L56.8039 37.1655L56.8039 37.1655L57.3039 37.1655ZM56.3483 38.1211L56.3483 37.6211L56.3483 37.6211L56.3483 38.1211ZM55.3926 37.1655L55.8926 37.1655L55.8926 37.1655L55.3926 37.1655ZM55.3926 30.872L55.8926 30.872L55.8926 29.6649L55.0391 30.5185L55.3926 30.872ZM35.7846 50.48L35.4311 50.1265L34.5775 50.98L35.7846 50.98L35.7846 50.48ZM42.0781 50.48L42.0781 50.98L42.0781 50.98L42.0781 50.48ZM43.0337 51.4357L42.5337 51.4357L42.5337 51.4357L43.0337 51.4357ZM42.0781 52.3913L42.0781 52.8913L42.0781 52.8913L42.0781 52.3913ZM33.4775 52.3913L33.4775 51.8913L33.4775 51.8913L33.4775 52.3913ZM32.5219 51.4357L33.0219 51.4357L33.0219 51.4357L32.5219 51.4357ZM32.5219 42.8351L32.0219 42.8351L32.0219 42.8351L32.5219 42.8351ZM33.4775 41.8795L33.4775 42.3795L33.4775 42.3795L33.4775 41.8795ZM34.4332 42.8351L33.9332 42.8351L33.9332 42.8351L34.4332 42.8351ZM34.4332 49.1286L33.9332 49.1286L33.9332 50.3357L34.7867 49.4821L34.4332 49.1286ZM54.0412 29.5206L54.3947 29.8741L55.2483 29.0206L54.0412 29.0206L54.0412 29.5206ZM47.7477 29.5206L47.7477 29.0206L47.7477 29.0206L47.7477 29.5206ZM46.7921 28.5649L47.2921 28.5649L47.2921 28.5649L46.7921 28.5649ZM47.7477 27.6093L47.7477 28.1093L47.7477 27.6093ZM57.8039 28.5649C57.8039 27.761 57.1522 27.1093 56.3483 27.1093L56.3483 28.1093C56.5999 28.1093 56.8039 28.3133 56.8039 28.5649L57.8039 28.5649ZM57.8039 37.1655L57.8039 28.5649L56.8039 28.5649L56.8039 37.1655L57.8039 37.1655ZM56.3483 38.6211C57.1522 38.6211 57.8039 37.9694 57.8039 37.1655L56.8039 37.1655C56.8039 37.4172 56.5999 37.6211 56.3483 37.6211L56.3483 38.6211ZM54.8926 37.1655C54.8926 37.9694 55.5443 38.6211 56.3483 38.6211L56.3483 37.6211C56.0966 37.6211 55.8926 37.4172 55.8926 37.1655L54.8926 37.1655ZM54.8926 30.872L54.8926 37.1655L55.8926 37.1655L55.8926 30.872L54.8926 30.872ZM36.1382 50.8336L55.7462 31.2256L55.0391 30.5185L35.4311 50.1265L36.1382 50.8336ZM42.0781 49.98L35.7846 49.98L35.7846 50.98L42.0781 50.98L42.0781 49.98ZM43.5337 51.4357C43.5337 50.6317 42.882 49.98 42.0781 49.98L42.0781 50.98C42.3298 50.98 42.5337 51.184 42.5337 51.4357L43.5337 51.4357ZM42.0781 52.8913C42.882 52.8913 43.5337 52.2396 43.5337 51.4357L42.5337 51.4357C42.5337 51.6873 42.3298 51.8913 42.0781 51.8913L42.0781 52.8913ZM33.4775 52.8913L42.0781 52.8913L42.0781 51.8913L33.4775 51.8913L33.4775 52.8913ZM32.0219 51.4357C32.0219 52.2396 32.6736 52.8913 33.4775 52.8913L33.4775 51.8913C33.2259 51.8913 33.0219 51.6873 33.0219 51.4357L32.0219 51.4357ZM32.0219 42.8351L32.0219 51.4357L33.0219 51.4357L33.0219 42.8351L32.0219 42.8351ZM33.4775 41.3795C32.6736 41.3794 32.0219 42.0312 32.0219 42.8351L33.0219 42.8351C33.0219 42.5834 33.2259 42.3795 33.4775 42.3795L33.4775 41.3795ZM34.9332 42.8351C34.9332 42.0312 34.2815 41.3795 33.4775 41.3795L33.4775 42.3795C33.7292 42.3795 33.9332 42.5834 33.9332 42.8351L34.9332 42.8351ZM34.9332 49.1286L34.9332 42.8351L33.9332 42.8351L33.9332 49.1286L34.9332 49.1286ZM53.6876 29.167L34.0796 48.775L34.7867 49.4821L54.3947 29.8741L53.6876 29.167ZM47.7477 30.0206L54.0412 30.0206L54.0412 29.0206L47.7477 29.0206L47.7477 30.0206ZM46.2921 28.5649C46.2921 29.3689 46.9438 30.0206 47.7477 30.0206L47.7477 29.0206C47.496 29.0206 47.2921 28.8166 47.2921 28.5649L46.2921 28.5649ZM47.7477 27.1093C46.9438 27.1093 46.2921 27.761 46.2921 28.5649L47.2921 28.5649C47.2921 28.3133 47.496 28.1093 47.7477 28.1093L47.7477 27.1093ZM56.3483 27.1093L47.7477 27.1093L47.7477 28.1093L56.3483 28.1093L56.3483 27.1093Z" fill="white"/>
</g>
<defs>
<filter id="filter0_d" x="0" y="0" width="90" height="90" filterUnits="userSpaceOnUse" color-interpolation-filters="sRGB">
<feFlood flood-opacity="0" result="BackgroundImageFix"/>
<feColorMatrix in="SourceAlpha" type="matrix" values="0 0 0 0 0 0 0 0 0 0 0 0 0 0 0 0 0 0 127 0" result="hardAlpha"/>
<feOffset dy="5"/>
<feGaussianBlur stdDeviation="10"/>
<feColorMatrix type="matrix" values="0 0 0 0 0 0 0 0 0 0 0 0 0 0 0 0 0 0 0.2 0"/>
<feBlend mode="normal" in2="BackgroundImageFix" result="effect1_dropShadow"/>
<feBlend mode="normal" in="SourceGraphic" in2="effect1_dropShadow" result="shape"/>
</filter>
<filter id="filter1_d" x="27.0234" y="22.1094" width="35.782" height="35.782" filterUnits="userSpaceOnUse" color-interpolation-filters="sRGB">
<feFlood flood-opacity="0" result="BackgroundImageFix"/>
<feColorMatrix in="SourceAlpha" type="matrix" values="0 0 0 0 0 0 0 0 0 0 0 0 0 0 0 0 0 0 127 0" result="hardAlpha"/>
<feOffset/>
<feGaussianBlur stdDeviation="2.5"/>
<feColorMatrix type="matrix" values="0 0 0 0 0 0 0 0 0 0 0 0 0 0 0 0 0 0 0.15 0"/>
<feBlend mode="normal" in2="BackgroundImageFix" result="effect1_dropShadow"/>
<feBlend mode="normal" in="SourceGraphic" in2="effect1_dropShadow" result="shape"/>
</filter>
</defs>
</svg>
