<svg width="36" height="44" viewBox="0 0 36 44" fill="none" xmlns="http://www.w3.org/2000/svg">
<path d="M29.6186 30.9465C36.8792 23.5821 36.956 11.6199 29.7723 4.17755L30.6943 1.99551L30.0028 0.982422L28.2356 2.77481L25.6234 5.42444C26.0844 5.81409 26.5453 6.20374 27.0063 6.63235C32.9224 12.633 32.9224 22.3353 27.0063 28.3359C21.5513 33.8689 12.9077 34.2586 6.99168 29.5438L9.60396 26.8942C11.5248 28.3359 13.8681 29.1152 16.2883 29.1152C19.3616 29.1152 22.2428 27.9073 24.3941 25.7252C26.5453 23.5432 27.7362 20.6208 27.7362 17.5036H24.0867C24.0867 19.6077 23.28 21.5949 21.8202 23.1146C20.3604 24.6342 18.4012 25.4135 16.2883 25.4135C14.8285 25.4135 13.4455 24.9849 12.2162 24.2445L22.9343 13.3733L24.3941 11.8926L25.5465 10.7237C25.2008 10.2171 24.8166 9.74955 24.3556 9.28197C23.9331 8.85336 23.4337 8.46371 22.9343 8.07406C21.0135 6.63235 18.6701 5.85305 16.2499 5.85305C13.1766 5.85305 10.2954 7.06097 8.14416 9.24301C5.99287 11.425 4.80198 14.3474 4.80198 17.4646C4.80198 19.9584 5.5703 22.2963 6.99168 24.2445L4.37941 26.8942L4.30257 26.9721L0 31.4141L0.960396 32.1155L3.18851 31.1414L3.22693 31.1803C6.26178 34.1027 9.98812 35.8561 13.8681 36.3627V40.9995L10.4875 42.3633L10.1802 43.9998H22.8574L23.2032 42.4022L19.5537 40.9995V36.2458C23.2416 35.5834 26.7758 33.8299 29.6186 30.9465ZM10.8333 11.8926C12.2931 10.412 14.2523 9.55473 16.3267 9.55473C17.7865 9.55473 19.1695 9.98334 20.3988 10.7237L9.68079 21.5949C8.95089 20.348 8.52832 18.9453 8.52832 17.4646C8.52832 15.3605 9.33505 13.3733 10.8333 11.8926Z" fill="#009D8C"/>
</svg>
