<svg width="40" height="40" viewBox="0 0 40 40" fill="none" xmlns="http://www.w3.org/2000/svg">
<rect width="40" height="40" rx="20" fill="#F4E6E6"/>
<path fill-rule="evenodd" clip-rule="evenodd" d="M19.3499 21.7419L17.4155 23.6763C17.8636 24.3346 17.7958 25.239 17.212 25.8228C16.5515 26.4833 15.4805 26.4833 14.82 25.8228L10.4954 21.4982C9.83487 20.8377 9.83487 19.7667 10.4954 19.1062C11.0793 18.5223 11.9838 18.4546 12.6421 18.9029L18.9029 12.6421C18.4546 11.9838 18.5223 11.0793 19.1062 10.4954C19.7667 9.83487 20.8377 9.83487 21.4982 10.4954L25.8228 14.82C26.4833 15.4805 26.4833 16.5514 25.8228 17.212C25.239 17.7958 24.3346 17.8636 23.6763 17.4155L21.7419 19.3499L28.5045 26.1125C29.165 26.773 29.165 27.8439 28.5045 28.5045C27.8439 29.165 26.773 29.165 26.1125 28.5045L19.3499 21.7419Z" fill="#A9474A"/>
</svg>
