<svg width="20" height="20" viewBox="0 0 20 20" fill="none" xmlns="http://www.w3.org/2000/svg">
<circle cx="10" cy="10" r="10" fill="#A9474A"/>
<path d="M14.6274 6.46115C14.0579 5.84136 13.2766 5.5 12.4271 5.5C11.7922 5.5 11.2107 5.70146 10.6987 6.09874C10.4404 6.29928 10.2064 6.54462 10 6.83098C9.79372 6.5447 9.55957 6.29928 9.30117 6.09874C8.78932 5.70146 8.20782 5.5 7.57285 5.5C6.72338 5.5 5.94197 5.84136 5.37255 6.46115C4.80993 7.07371 4.5 7.91055 4.5 8.81763C4.5 9.75125 4.84669 10.6059 5.591 11.5072C6.25685 12.3135 7.21383 13.132 8.32204 14.0797C8.70045 14.4034 9.12938 14.7703 9.57476 15.1611C9.69242 15.2645 9.8434 15.3214 10 15.3214C10.1565 15.3214 10.3076 15.2645 10.4251 15.1612C10.8705 14.7704 11.2996 14.4033 11.6782 14.0795C12.7863 13.1319 13.7432 12.3135 14.4091 11.5071C15.1534 10.6059 15.5 9.75125 15.5 8.81755C15.5 7.91055 15.1901 7.07371 14.6274 6.46115Z" fill="white"/>
</svg>
