<svg width="40" height="40" viewBox="0 0 40 40" fill="none" xmlns="http://www.w3.org/2000/svg">
<rect width="40" height="40" rx="20" fill="#E8F1F2"/>
<path d="M20 11C25.5 11 30 14.58 30 19C30 23.42 25.5 27 20 27C18.76 27 17.57 26.82 16.47 26.5C15.1014 27.6717 13.5944 28.2943 12.3794 28.6251C11.5198 28.8591 11.0558 27.8963 11.5722 27.1703C12.5176 25.8412 12.7145 24.9261 12.75 24.5C11.05 23.07 10 21.13 10 19C10 14.58 14.5 11 20 11ZM24 20C24.5523 20 25 19.5523 25 19C25 18.4477 24.5523 18 24 18C23.4477 18 23 18.4477 23 19C23 19.5523 23.4477 20 24 20ZM20 20C20.5523 20 21 19.5523 21 19C21 18.4477 20.5523 18 20 18C19.4477 18 19 18.4477 19 19C19 19.5523 19.4477 20 20 20ZM16 20C16.5523 20 17 19.5523 17 19C17 18.4477 16.5523 18 16 18C15.4477 18 15 18.4477 15 19C15 19.5523 15.4477 20 16 20Z" fill="#006A75"/>
</svg>
