<svg width="25" height="25" viewBox="0 0 25 25" fill="none" xmlns="http://www.w3.org/2000/svg">
<circle cx="12.5" cy="12.5" r="12.5" fill="#009D8C"/>
<path d="M11.7701 8.35486C11.7701 8.84986 12.1751 9.23986 12.6551 9.23986C13.1351 9.23986 13.5251 8.84986 13.5251 8.35486C13.5251 7.87486 13.1351 7.48486 12.6551 7.48486C12.1751 7.48486 11.7701 7.87486 11.7701 8.35486ZM12.2651 16.3949C12.2651 16.8149 12.0851 17.0249 11.7101 17.0249C11.5751 17.0249 11.2901 16.9499 11.1101 16.9499C10.7351 16.9499 10.5551 17.1299 10.5551 17.4899C10.5551 17.8349 10.7651 17.9999 11.2001 17.9999H14.4851C14.9201 17.9999 15.1301 17.8349 15.1301 17.4899C15.1301 17.1299 14.9501 16.9499 14.5751 16.9499C14.3951 16.9499 14.1101 17.0249 13.9751 17.0249C13.6001 17.0249 13.4201 16.8149 13.4201 16.3949V10.7699C13.4201 10.2899 13.2551 10.1849 12.8501 10.1849H11.3501C10.9151 10.1849 10.6901 10.3649 10.6901 10.7099C10.6901 11.0099 10.9151 11.2349 11.2601 11.2349C11.4401 11.2349 11.7251 11.1599 11.8601 11.1599C12.1301 11.1599 12.2651 11.3699 12.2651 11.7899V16.3949Z" fill="white"/>
</svg>
