<svg width="40" height="40" viewBox="0 0 40 40" fill="none" xmlns="http://www.w3.org/2000/svg">
<rect width="40" height="40" rx="20" fill="#E8F1F2"/>
<g clip-path="url(#clip0)">
<path d="M18.7005 28C18.5392 28 18.4072 27.9487 18.3045 27.846C18.2019 27.7287 18.1505 27.5967 18.1505 27.45V17.11C18.1505 16.9487 18.2019 16.8167 18.3045 16.714C18.4072 16.6113 18.5392 16.56 18.7005 16.56H21.2965C21.4579 16.56 21.5899 16.6113 21.6925 16.714C21.7952 16.8167 21.8465 16.9487 21.8465 17.11V27.45C21.8465 27.5967 21.7952 27.7287 21.6925 27.846C21.5899 27.9487 21.4579 28 21.2965 28H18.7005ZM18.6785 14.91C18.5172 14.91 18.3852 14.8587 18.2825 14.756C18.1799 14.6533 18.1285 14.5213 18.1285 14.36V12.38C18.1285 12.2333 18.1799 12.1087 18.2825 12.006C18.3852 11.8887 18.5172 11.83 18.6785 11.83H21.3185C21.4652 11.83 21.5899 11.8887 21.6925 12.006C21.8099 12.1087 21.8685 12.2333 21.8685 12.38V14.36C21.8685 14.5213 21.8099 14.6533 21.6925 14.756C21.5899 14.8587 21.4652 14.91 21.3185 14.91H18.6785Z" fill="#006A75"/>
</g>
<defs>
<clipPath id="clip0">
<rect width="24" height="24" fill="white" transform="translate(8 8)"/>
</clipPath>
</defs>
</svg>
