<svg width="17" height="23" viewBox="0 0 17 23" fill="none" xmlns="http://www.w3.org/2000/svg">
<path d="M8.49456 0C10.6731 0 12.7625 0.848121 14.3029 2.35779C15.8434 3.86745 16.7088 5.915 16.7088 8.04998C16.7088 10.3297 15.7401 12.378 14.1891 13.8427C13.6031 14.3961 13.1882 15.1325 13.1881 15.9385C13.1879 17.2957 12.0888 18.4 10.7316 18.3999C9.24023 18.3999 7.74888 18.3999 6.25753 18.3999C4.90029 18.4 3.80123 17.2957 3.80101 15.9385C3.80089 15.1325 3.38603 14.3961 2.80005 13.8427C1.24903 12.378 0.280273 10.3297 0.280273 8.04998C0.280273 5.915 1.1457 3.86745 2.68618 2.35779C4.22666 0.848121 6.316 0 8.49456 0Z" fill="#009D8C"/>
<path d="M12.3278 20.2617H4.66113C4.66113 21.7739 5.88706 22.9998 7.39923 22.9998H9.5897C11.1019 22.9998 12.3278 21.7739 12.3278 20.2617Z" fill="#009D8C"/>
</svg>

