<svg width="40" height="40" viewBox="0 0 40 40" fill="none" xmlns="http://www.w3.org/2000/svg">
<rect width="40" height="40" rx="20" fill="#F4E6E6"/>
<path fill-rule="evenodd" clip-rule="evenodd" d="M21.1401 28.2374H14.5489C13.3358 28.2374 12.3616 27.2638 12.3616 26.0514V13.9465C12.3616 12.7341 13.3358 11.7605 14.5489 11.7605H21.1401C22.3532 11.7605 23.3462 12.7341 23.3462 13.9465L23.3463 17.2528H18.1285C16.7636 17.2528 15.657 18.3593 15.657 19.7243C15.657 21.0893 16.7636 22.1959 18.1286 22.1959H23.3462V26.0514C23.3462 27.2638 22.3532 28.2374 21.1401 28.2374ZM27.4988 15.8464C27.1771 15.5247 26.6555 15.5247 26.3337 15.8464C26.012 16.1682 26.012 16.6898 26.3337 17.0115L28.2227 18.9005H18.1286C17.6736 18.9005 17.3047 19.2694 17.3047 19.7244C17.3047 20.1793 17.6736 20.5482 18.1286 20.5482H28.2227L26.3337 22.4372C26.012 22.7589 26.012 23.2806 26.3337 23.6023C26.6555 23.924 27.1771 23.924 27.4988 23.6023L30.7942 20.3069C31.1159 19.9852 31.1159 19.4635 30.7942 19.1418L27.4988 15.8464Z" fill="#A9474A"/>
</svg>
