<svg width="40" height="40" viewBox="0 0 40 40" fill="none" xmlns="http://www.w3.org/2000/svg">
<rect width="40" height="40" rx="20" fill="#E8F1F2"/>
<path d="M15.6435 28.6429C15.4807 28.7843 15.281 28.8765 15.0678 28.9084C14.8545 28.9404 14.6366 28.9109 14.4395 28.8233C14.2425 28.7357 14.0745 28.5937 13.9553 28.414C13.8361 28.2343 13.7707 28.0243 13.7667 27.8087V25.2667C13.1655 25.2667 12.589 25.0278 12.1639 24.6028C11.7388 24.1777 11.5 23.6011 11.5 23V15.0667C11.5 14.4655 11.7388 13.889 12.1639 13.4639C12.589 13.0388 13.1655 12.8 13.7667 12.8H26.2333C26.8345 12.8 27.411 13.0388 27.8361 13.4639C28.2612 13.889 28.5 14.4655 28.5 15.0667V23C28.5 23.6011 28.2612 24.1777 27.8361 24.6028C27.411 25.0278 26.8345 25.2667 26.2333 25.2667H20.5701L15.6435 28.6429Z" fill="#006A75"/>
</svg>
