<svg width="46" height="46" viewBox="0 0 46 46" fill="none" xmlns="http://www.w3.org/2000/svg">
<g filter="url(#filter0_d)">
<rect x="3" y="2" width="40" height="40" rx="20" fill="white"/>
</g>
<path fill-rule="evenodd" clip-rule="evenodd" d="M27.7017 19.9441L29.3645 18.2753L26.7117 15.613L25.0489 17.2818L27.7017 19.9441ZM25.9371 21.7151L19.5837 28.0915L16.6628 28.3586L16.9676 25.3923L23.2844 19.0527L25.9371 21.7151ZM31.3299 16.7059L28.2474 13.6122C27.8451 13.233 27.3179 13.0154 26.7661 13.0008C26.2143 12.9862 25.6765 13.1757 25.2549 13.5332L15.1297 23.6949C14.7661 24.0629 14.5397 24.5453 14.4885 25.061L14.0047 29.7693C13.9896 29.9347 14.011 30.1014 14.0673 30.2575C14.1237 30.4136 14.2138 30.5553 14.331 30.6726C14.4361 30.7772 14.5608 30.86 14.6978 30.9162C14.8349 30.9724 14.9817 31.0008 15.1297 31H15.231L19.9223 30.5709C20.4362 30.5196 20.9168 30.2923 21.2836 29.9274L31.4087 19.7657C31.8017 19.349 32.014 18.793 31.9993 18.2195C31.9845 17.6459 31.7438 17.1016 31.3299 16.7059Z" fill="#BDBDBD"/>
<defs>
<filter id="filter0_d" x="0" y="0" width="46" height="46" filterUnits="userSpaceOnUse" color-interpolation-filters="sRGB">
<feFlood flood-opacity="0" result="BackgroundImageFix"/>
<feColorMatrix in="SourceAlpha" type="matrix" values="0 0 0 0 0 0 0 0 0 0 0 0 0 0 0 0 0 0 127 0" result="hardAlpha"/>
<feOffset dy="1"/>
<feGaussianBlur stdDeviation="1.5"/>
<feColorMatrix type="matrix" values="0 0 0 0 0 0 0 0 0 0 0 0 0 0 0 0 0 0 0.1 0"/>
<feBlend mode="normal" in2="BackgroundImageFix" result="effect1_dropShadow"/>
<feBlend mode="normal" in="SourceGraphic" in2="effect1_dropShadow" result="shape"/>
</filter>
</defs>
</svg>
