<svg width="35" height="35" viewBox="0 0 35 35" fill="none" xmlns="http://www.w3.org/2000/svg">
<g clip-path="url(#clip0)">
<rect width="35" height="35" rx="5" fill="#E6F5F4"/>
<path fill-rule="evenodd" clip-rule="evenodd" d="M21.1756 13.2998C21.1756 15.6195 19.5301 17.5 17.5004 17.5C15.4706 17.5 13.8252 15.6195 13.8252 13.2998C13.8252 10.9801 15.4706 9.09961 17.5004 9.09961C19.5301 9.09961 21.1756 10.9801 21.1756 13.2998ZM10.15 22.9162C10.15 19.7614 11.8343 18.0842 13.7428 17.3381C14.6674 18.3913 15.9696 19.0753 17.5 19.0753C19.0305 19.0753 20.3326 18.3912 21.2573 17.338C23.166 18.0839 24.8505 19.7612 24.8505 22.9162C22.9011 24.8266 20.2571 25.8999 17.5002 25.8999C14.7433 25.8999 12.0995 24.8266 10.15 22.9162Z" fill="#009D8C"/>
</g>
<defs>
<clipPath id="clip0">
<rect width="35" height="35" fill="white"/>
</clipPath>
</defs>
</svg>
