<svg width="23" height="21" viewBox="0 0 23 21" fill="none" xmlns="http://www.w3.org/2000/svg">
<path d="M15.8507 1.54181C15.2828 0.802994 14.4039 0.369995 13.4721 0.369995H9.52794C8.59612 0.369995 7.7172 0.802994 7.14935 1.54181L6.84615 1.93628C6.2783 2.67509 5.40053 3.10809 4.4687 3.10809C4.01361 3.10809 3.50564 3.10809 2.99994 3.10809C1.34309 3.10809 0 4.45124 0 6.10809V17.6319C0 19.2888 1.33526 20.6319 2.99212 20.6319C7.37247 20.6319 15.4977 20.6319 20.0004 20.6319C21.6573 20.6319 23 19.2888 23 17.6319V6.10809C23 4.45124 21.6569 3.10809 20.0001 3.10809C19.4944 3.10809 18.9864 3.10809 18.5313 3.10809C17.5995 3.10809 16.7217 2.67509 16.1538 1.93628L15.8507 1.54181Z" fill="#4F4F4F" fill-opacity="0.5"/>
<path d="M15.8507 1.54181C15.2828 0.802994 14.4039 0.369995 13.4721 0.369995H9.52794C8.59612 0.369995 7.7172 0.802994 7.14935 1.54181L6.84615 1.93628C6.2783 2.67509 5.40053 3.10809 4.4687 3.10809C4.01361 3.10809 3.50564 3.10809 2.99994 3.10809C1.34309 3.10809 0 4.45124 0 6.10809V17.6319C0 19.2888 1.33526 20.6319 2.99212 20.6319C7.37247 20.6319 15.4977 20.6319 20.0004 20.6319C21.6573 20.6319 23 19.2888 23 17.6319V6.10809C23 4.45124 21.6569 3.10809 20.0001 3.10809C19.4944 3.10809 18.9864 3.10809 18.5313 3.10809C17.5995 3.10809 16.7217 2.67509 16.1538 1.93628L15.8507 1.54181Z" fill="#006A75" fill-opacity="0.15"/>
<path d="M15.3333 11.3223C15.3333 9.21401 13.6083 7.48901 11.4999 7.48901C9.3916 7.48901 7.6666 9.21401 7.6666 11.3223C7.6666 13.4307 9.3916 15.1557 11.4999 15.1557C13.6083 15.1557 15.3333 13.4307 15.3333 11.3223Z" stroke="white" stroke-width="2"/>
</svg>
