<svg width="23" height="21" viewBox="0 0 23 21" fill="none" xmlns="http://www.w3.org/2000/svg">
<path d="M13.4721 1.37C14.0933 1.37 14.6792 1.65866 15.0578 2.1512L15.361 2.54567C16.1179 3.53043 17.2885 4.10809 18.5313 4.10809H18.534H18.5366H18.5393H18.542H18.5446H18.5473H18.55H18.5527H18.5553H18.558H18.5607H18.5634H18.5661H18.5687H18.5714H18.5741H18.5768H18.5795H18.5822H18.5849H18.5876H18.5902H18.5929H18.5956H18.5983H18.601H18.6037H18.6064H18.6091H18.6118H18.6145H18.6172H18.6199H18.6226H18.6253H18.6281H18.6308H18.6335H18.6362H18.6389H18.6416H18.6443H18.647H18.6498H18.6525H18.6552H18.6579H18.6606H18.6634H18.6661H18.6688H18.6715H18.6743H18.677H18.6797H18.6824H18.6852H18.6879H18.6906H18.6934H18.6961H18.6989H18.7016H18.7043H18.7071H18.7098H18.7125H18.7153H18.718H18.7208H18.7235H18.7263H18.729H18.7318H18.7345H18.7373H18.74H18.7428H18.7455H18.7483H18.751H18.7538H18.7566H18.7593H18.7621H18.7648H18.7676H18.7704H18.7731H18.7759H18.7787H18.7814H18.7842H18.787H18.7897H18.7925H18.7953H18.798H18.8008H18.8036H18.8064H18.8091H18.8119H18.8147H18.8175H18.8203H18.823H18.8258H18.8286H18.8314H18.8342H18.837H18.8398H18.8425H18.8453H18.8481H18.8509H18.8537H18.8565H18.8593H18.8621H18.8649H18.8677H18.8705H18.8733H18.8761H18.8789H18.8817H18.8845H18.8873H18.8901H18.8929H18.8957H18.8985H18.9013H18.9041H18.9069H18.9097H18.9125H18.9153H18.9182H18.921H18.9238H18.9266H18.9294H18.9322H18.9351H18.9379H18.9407H18.9435H18.9463H18.9492H18.952H18.9548H18.9576H18.9604H18.9633H18.9661H18.9689H18.9718H18.9746H18.9774H18.9802H18.9831H18.9859H18.9887H18.9916H18.9944H18.9972H19.0001H19.0029H19.0058H19.0086H19.0114H19.0143H19.0171H19.02H19.0228H19.0256H19.0285H19.0313H19.0342H19.037H19.0399H19.0427H19.0456H19.0484H19.0513H19.0541H19.057H19.0598H19.0627H19.0655H19.0684H19.0712H19.0741H19.077H19.0798H19.0827H19.0855H19.0884H19.0912H19.0941H19.097H19.0998H19.1027H19.1056H19.1084H19.1113H19.1142H19.117H19.1199H19.1228H19.1256H19.1285H19.1314H19.1342H19.1371H19.14H19.1429H19.1457H19.1486H19.1515H19.1544H19.1572H19.1601H19.163H19.1659H19.1687H19.1716H19.1745H19.1774H19.1803H19.1831H19.186H19.1889H19.1918H19.1947H19.1976H19.2004H19.2033H19.2062H19.2091H19.212H19.2149H19.2178H19.2207H19.2236H19.2264H19.2293H19.2322H19.2351H19.238H19.2409H19.2438H19.2467H19.2496H19.2525H19.2554H19.2583H19.2612H19.2641H19.267H19.2699H19.2728H19.2757H19.2786H19.2815H19.2844H19.2873H19.2902H19.2931H19.296H19.2989H19.3018H19.3047H19.3076H19.3105H19.3134H19.3164H19.3193H19.3222H19.3251H19.328H19.3309H19.3338H19.3367H19.3396H19.3426H19.3455H19.3484H19.3513H19.3542H19.3571H19.36H19.363H19.3659H19.3688H19.3717H19.3746H19.3776H19.3805H19.3834H19.3863H19.3892H19.3922H19.3951H19.398H19.4009H19.4038H19.4068H19.4097H19.4126H19.4155H19.4185H19.4214H19.4243H19.4272H19.4302H19.4331H19.436H19.439H19.4419H19.4448H19.4477H19.4507H19.4536H19.4565H19.4595H19.4624H19.4653H19.4683H19.4712H19.4741H19.4771H19.48H19.4829H19.4859H19.4888H19.4917H19.4947H19.4976H19.5005H19.5035H19.5064H19.5094H19.5123H19.5152H19.5182H19.5211H19.524H19.527H19.5299H19.5329H19.5358H19.5387H19.5417H19.5446H19.5476H19.5505H19.5535H19.5564H19.5593H19.5623H19.5652H19.5682H19.5711H19.5741H19.577H19.58H19.5829H19.5858H19.5888H19.5917H19.5947H19.5976H19.6006H19.6035H19.6065H19.6094H19.6124H19.6153H19.6183H19.6212H19.6242H19.6271H19.6301H19.633H19.636H19.6389H19.6419H19.6448H19.6478H19.6507H19.6537H19.6566H19.6596H19.6625H19.6655H19.6684H19.6714H19.6744H19.6773H19.6803H19.6832H19.6862H19.6891H19.6921H19.695H19.698H19.7009H19.7039H19.7069H19.7098H19.7128H19.7157H19.7187H19.7216H19.7246H19.7276H19.7305H19.7335H19.7364H19.7394H19.7423H19.7453H19.7483H19.7512H19.7542H19.7571H19.7601H19.7631H19.766H19.769H19.7719H19.7749H19.7779H19.7808H19.7838H19.7867H19.7897H19.7927H19.7956H19.7986H19.8015H19.8045H19.8075H19.8104H19.8134H19.8163H19.8193H19.8223H19.8252H19.8282H19.8312H19.8341H19.8371H19.84H19.843H19.846H19.8489H19.8519H19.8549H19.8578H19.8608H19.8637H19.8667H19.8697H19.8726H19.8756H19.8786H19.8815H19.8845H19.8874H19.8904H19.8934H19.8963H19.8993H19.9023H19.9052H19.9082H19.9112H19.9141H19.9171H19.92H19.923H19.926H19.9289H19.9319H19.9349H19.9378H19.9408H19.9438H19.9467H19.9497H19.9526H19.9556H19.9586H19.9615H19.9645H19.9675H19.9704H19.9734H19.9764H19.9793H19.9823H19.9852H19.9882H19.9912H19.9941H19.9971H20.0001C21.1046 4.10809 22 5.0035 22 6.10809V17.6319C22 18.7366 21.1048 19.6319 20.0004 19.6319H19.974H19.9475H19.9209H19.8942H19.8675H19.8406H19.8137H19.7867H19.7596H19.7325H19.7053H19.6779H19.6505H19.6231H19.5955H19.5679H19.5402H19.5124H19.4845H19.4566H19.4286H19.4005H19.3723H19.3441H19.3158H19.2874H19.2589H19.2304H19.2018H19.1731H19.1443H19.1155H19.0866H19.0576H19.0286H18.9995H18.9703H18.941H18.9117H18.8823H18.8528H18.8233H18.7936H18.764H18.7342H18.7044H18.6745H18.6446H18.6146H18.5845H18.5543H18.5241H18.4938H18.4635H18.4331H18.4026H18.372H18.3414H18.3108H18.28H18.2492H18.2184H18.1875H18.1565H18.1254H18.0943H18.0632H18.0319H18.0006H17.9693H17.9379H17.9064H17.8749H17.8433H17.8116H17.7799H17.7482H17.7164H17.6845H17.6525H17.6206H17.5885H17.5564H17.5242H17.492H17.4598H17.4274H17.3951H17.3626H17.3301H17.2976H17.265H17.2324H17.1997H17.1669H17.1341H17.1013H17.0684H17.0354H17.0024H16.9694H16.9363H16.9031H16.8699H16.8367H16.8034H16.77H16.7366H16.7032H16.6697H16.6362H16.6026H16.569H16.5353H16.5016H16.4678H16.434H16.4001H16.3663H16.3323H16.2983H16.2643H16.2302H16.1961H16.162H16.1278H16.0935H16.0593H16.0249H15.9906H15.9562H15.9217H15.8873H15.8528H15.8182H15.7836H15.749H15.7143H15.6796H15.6448H15.6101H15.5752H15.5404H15.5055H15.4706H15.4356H15.4006H15.3656H15.3305H15.2954H15.2603H15.2251H15.1899H15.1547H15.1194H15.0841H15.0488H15.0135H14.9781H14.9427H14.9072H14.8717H14.8362H14.8007H14.7651H14.7295H14.6939H14.6583H14.6226H14.5869H14.5511H14.5154H14.4796H14.4438H14.4079H14.3721H14.3362H14.3003H14.2643H14.2284H14.1924H14.1564H14.1204H14.0843H14.0482H14.0121H13.976H13.9399H13.9037H13.8675H13.8313H13.7951H13.7589H13.7226H13.6863H13.65H13.6137H13.5774H13.541H13.5047H13.4683H13.4319H13.3954H13.359H13.3226H13.2861H13.2496H13.2131H13.1766H13.1401H13.1035H13.067H13.0304H12.9938H12.9572H12.9206H12.884H12.8474H12.8108H12.7741H12.7375H12.7008H12.6641H12.6274H12.5907H12.554H12.5173H12.4806H12.4438H12.4071H12.3704H12.3336H12.2969H12.2601H12.2233H12.1865H12.1498H12.113H12.0762H12.0394H12.0026H11.9658H11.929H11.8922H11.8554H11.8186H11.7817H11.7449H11.7081H11.6713H11.6345H11.5976H11.5608H11.524H11.4872H11.4504H11.4136H11.3767H11.3399H11.3031H11.2663H11.2295H11.1927H11.1559H11.1191H11.0823H11.0455H11.0088H10.972H10.9352H10.8985H10.8617H10.825H10.7882H10.7515H10.7148H10.678H10.6413H10.6046H10.5679H10.5312H10.4946H10.4579H10.4213H10.3846H10.348H10.3114H10.2748H10.2382H10.2016H10.165H10.1284H10.0919H10.0554H10.0188H9.98234H9.94585H9.90937H9.87291H9.83647H9.80004H9.76363H9.72723H9.69086H9.65449H9.61815H9.58182H9.54552H9.50923H9.47296H9.43671H9.40047H9.36426H9.32807H9.2919H9.25575H9.21962H9.18351H9.14743H9.11136H9.07532H9.0393H9.00331H8.96734H8.93139H8.89546H8.85956H8.82369H8.78784H8.75202H8.71622H8.68045H8.6447H8.60898H8.57329H8.53762H8.50199H8.46638H8.4308H8.39525H8.35972H8.32423H8.28877H8.25333H8.21793H8.18256H8.14722H8.11191H8.07663H8.04138H8.00617H7.97099H7.93584H7.90073H7.86565H7.8306H7.79559H7.76061H7.72567H7.69076H7.65589H7.62105H7.58625H7.55149H7.51676H7.48207H7.44742H7.41281H7.37823H7.3437H7.3092H7.27474H7.24032H7.20594H7.17161H7.13731H7.10305H7.06884H7.03466H7.00053H6.96644H6.93239H6.89839H6.86443H6.83051H6.79664H6.76281H6.72902H6.69528H6.66159H6.62794H6.59434H6.56078H6.52727H6.4938H6.46039H6.42702H6.3937H6.36042H6.3272H6.29402H6.2609H6.22782H6.19479H6.16181H6.12889H6.09601H6.06319H6.03041H5.99769H5.96502H5.9324H5.89984H5.86733H5.83487H5.80247H5.77012H5.73782H5.70558H5.6734H5.64127H5.60919H5.57717H5.54521H5.51331H5.48146H5.44967H5.41793H5.38626H5.35464H5.32308H5.29159H5.26015H5.22877H5.19745H5.16619H5.13499H5.10385H5.07277H5.04176H5.01081H4.97992H4.94909H4.91832H4.88762H4.85698H4.82641H4.7959H4.76546H4.73508H4.70476H4.67451H4.64433H4.61421H4.58416H4.55418H4.52426H4.49442H4.46463H4.43492H4.40528H4.3757H4.3462H4.31676H4.2874H4.2581H4.22888H4.19972H4.17064H4.14163H4.11269H4.08382H4.05503H4.0263H3.99765H3.96908H3.94058H3.91215H3.8838H3.85552H3.82732H3.79919H3.77114H3.74316H3.71527H3.68744H3.6597H3.63203H3.60444H3.57693H3.5495H3.52214H3.49487H3.46767H3.44056H3.41352H3.38657H3.35969H3.3329H3.30619H3.27956H3.25301H3.22654H3.20016H3.17386H3.14765H3.12151H3.09546H3.0695H3.04362H3.01783H2.99212C1.89097 19.6319 1 18.7399 1 17.6319V6.10809C1 5.0035 1.8954 4.10809 2.99994 4.10809H3.0029H3.00587H3.00883H3.01179H3.01476H3.01772H3.02068H3.02365H3.02661H3.02957H3.03254H3.0355H3.03846H3.04143H3.04439H3.04735H3.05032H3.05328H3.05625H3.05921H3.06217H3.06514H3.0681H3.07106H3.07403H3.07699H3.07995H3.08292H3.08588H3.08885H3.09181H3.09477H3.09774H3.1007H3.10366H3.10663H3.10959H3.11255H3.11552H3.11848H3.12144H3.1244H3.12737H3.13033H3.13329H3.13626H3.13922H3.14218H3.14514H3.14811H3.15107H3.15403H3.157H3.15996H3.16292H3.16588H3.16884H3.17181H3.17477H3.17773H3.18069H3.18365H3.18661H3.18958H3.19254H3.1955H3.19846H3.20142H3.20438H3.20734H3.2103H3.21326H3.21622H3.21918H3.22214H3.2251H3.22806H3.23102H3.23398H3.23694H3.2399H3.24286H3.24582H3.24878H3.25174H3.2547H3.25765H3.26061H3.26357H3.26653H3.26949H3.27244H3.2754H3.27836H3.28131H3.28427H3.28723H3.29018H3.29314H3.2961H3.29905H3.30201H3.30496H3.30792H3.31087H3.31383H3.31678H3.31974H3.32269H3.32565H3.3286H3.33155H3.33451H3.33746H3.34041H3.34336H3.34632H3.34927H3.35222H3.35517H3.35812H3.36108H3.36403H3.36698H3.36993H3.37288H3.37583H3.37878H3.38173H3.38468H3.38763H3.39057H3.39352H3.39647H3.39942H3.40237H3.40531H3.40826H3.41121H3.41415H3.4171H3.42004H3.42299H3.42594H3.42888H3.43182H3.43477H3.43771H3.44066H3.4436H3.44654H3.44949H3.45243H3.45537H3.45831H3.46125H3.46419H3.46713H3.47007H3.47301H3.47595H3.47889H3.48183H3.48477H3.48771H3.49065H3.49358H3.49652H3.49946H3.5024H3.50533H3.50827H3.5112H3.51414H3.51707H3.52001H3.52294H3.52587H3.52881H3.53174H3.53467H3.5376H3.54054H3.54347H3.5464H3.54933H3.55226H3.55519H3.55812H3.56104H3.56397H3.5669H3.56983H3.57276H3.57568H3.57861H3.58153H3.58446H3.58738H3.59031H3.59323H3.59616H3.59908H3.602H3.60492H3.60785H3.61077H3.61369H3.61661H3.61953H3.62245H3.62537H3.62828H3.6312H3.63412H3.63704H3.63995H3.64287H3.64579H3.6487H3.65161H3.65453H3.65744H3.66036H3.66327H3.66618H3.66909H3.672H3.67491H3.67782H3.68073H3.68364H3.68655H3.68946H3.69237H3.69527H3.69818H3.70109H3.70399H3.7069H3.7098H3.7127H3.71561H3.71851H3.72141H3.72431H3.72721H3.73012H3.73302H3.73591H3.73881H3.74171H3.74461H3.74751H3.7504H3.7533H3.75619H3.75909H3.76198H3.76488H3.76777H3.77066H3.77355H3.77644H3.77934H3.78223H3.78511H3.788H3.79089H3.79378H3.79667H3.79955H3.80244H3.80532H3.80821H3.81109H3.81397H3.81686H3.81974H3.82262H3.8255H3.82838H3.83126H3.83414H3.83702H3.8399H3.84277H3.84565H3.84852H3.8514H3.85427H3.85715H3.86002H3.86289H3.86576H3.86863H3.8715H3.87437H3.87724H3.88011H3.88298H3.88584H3.88871H3.89158H3.89444H3.8973H3.90017H3.90303H3.90589H3.90875H3.91161H3.91447H3.91733H3.92019H3.92305H3.9259H3.92876H3.93162H3.93447H3.93732H3.94018H3.94303H3.94588H3.94873H3.95158H3.95443H3.95728H3.96013H3.96297H3.96582H3.96867H3.97151H3.97436H3.9772H3.98004H3.98288H3.98572H3.98856H3.9914H3.99424H3.99708H3.99992H4.00275H4.00559H4.00842H4.01126H4.01409H4.01692H4.01975H4.02259H4.02542H4.02824H4.03107H4.0339H4.03673H4.03955H4.04238H4.0452H4.04803H4.05085H4.05367H4.05649H4.05931H4.06213H4.06495H4.06776H4.07058H4.0734H4.07621H4.07903H4.08184H4.08465H4.08746H4.09027H4.09308H4.09589H4.0987H4.10151H4.10431H4.10712H4.10992H4.11273H4.11553H4.11833H4.12113H4.12393H4.12673H4.12953H4.13233H4.13512H4.13792H4.14071H4.14351H4.1463H4.14909H4.15188H4.15467H4.15746H4.16025H4.16303H4.16582H4.16861H4.17139H4.17417H4.17696H4.17974H4.18252H4.1853H4.18808H4.19085H4.19363H4.19641H4.19918H4.20195H4.20473H4.2075H4.21027H4.21304H4.21581H4.21858H4.22134H4.22411H4.22687H4.22964H4.2324H4.23516H4.23793H4.24068H4.24344H4.2462H4.24896H4.25171H4.25447H4.25722H4.25998H4.26273H4.26548H4.26823H4.27098H4.27373H4.27647H4.27922H4.28196H4.28471H4.28745H4.29019H4.29293H4.29567H4.29841H4.30115H4.30388H4.30662H4.30935H4.31209H4.31482H4.31755H4.32028H4.32301H4.32574H4.32846H4.33119H4.33391H4.33664H4.33936H4.34208H4.3448H4.34752H4.35024H4.35295H4.35567H4.35838H4.3611H4.36381H4.36652H4.36923H4.37194H4.37465H4.37736H4.38006H4.38277H4.38547H4.38817H4.39087H4.39357H4.39627H4.39897H4.40167H4.40436H4.40705H4.40975H4.41244H4.41513H4.41782H4.42051H4.4232H4.42588H4.42857H4.43125H4.43393H4.43662H4.4393H4.44198H4.44465H4.44733H4.45001H4.45268H4.45535H4.45802H4.4607H4.46337H4.46603H4.4687C5.71155 4.10809 6.88214 3.53043 7.63902 2.54568L7.94221 2.1512C8.32078 1.65866 8.90673 1.37 9.52794 1.37H13.4721Z" fill="#009D8C" stroke="#009D8C" stroke-width="2" stroke-linecap="round" stroke-linejoin="round"/>
<path d="M15.3332 11.3223C15.3332 9.21401 13.6082 7.48901 11.4998 7.48901C9.3915 7.48901 7.6665 9.21401 7.6665 11.3223C7.6665 13.4307 9.3915 15.1557 11.4998 15.1557C13.6082 15.1557 15.3332 13.4307 15.3332 11.3223Z" stroke="white" stroke-width="2"/>
</svg>
