<svg width="23" height="23" viewBox="0 0 23 23" fill="none" xmlns="http://www.w3.org/2000/svg">
<path d="M18.1 2.7V1.98C18.1 1.16262 17.4374 0.5 16.62 0.5H16.28C15.4626 0.5 14.8 1.16262 14.8 1.98V2.7H8.2V1.98C8.2 1.16262 7.53738 0.5 6.72 0.5H6.38C5.56262 0.5 4.9 1.16262 4.9 1.98V2.7C4.43331 2.7 3.96662 2.7 3.49992 2.7C1.84313 2.7 0.500013 4.04304 0.499964 5.69983C0.49983 10.2999 0.49994 14.8999 0.499984 19.5C0.5 21.1569 1.83682 22.5 3.49367 22.5C7.56532 22.5 14.8711 22.5 19.5014 22.5C21.1583 22.5 22.5 21.1569 22.5 19.5C22.5 14.9 22.5 10.3 22.5 5.7C22.5 4.04315 21.1569 2.7 19.5 2.7C19.0333 2.7 18.5667 2.7 18.1 2.7Z" fill="#4F4F4F" fill-opacity="0.5"/>
<path d="M18.1 2.7V1.98C18.1 1.16262 17.4374 0.5 16.62 0.5H16.28C15.4626 0.5 14.8 1.16262 14.8 1.98V2.7H8.2V1.98C8.2 1.16262 7.53738 0.5 6.72 0.5H6.38C5.56262 0.5 4.9 1.16262 4.9 1.98V2.7C4.43331 2.7 3.96662 2.7 3.49992 2.7C1.84313 2.7 0.500013 4.04304 0.499964 5.69983C0.49983 10.2999 0.49994 14.8999 0.499984 19.5C0.5 21.1569 1.83682 22.5 3.49367 22.5C7.56532 22.5 14.8711 22.5 19.5014 22.5C21.1583 22.5 22.5 21.1569 22.5 19.5C22.5 14.9 22.5 10.3 22.5 5.7C22.5 4.04315 21.1569 2.7 19.5 2.7C19.0333 2.7 18.5667 2.7 18.1 2.7Z" fill="#006A75" fill-opacity="0.15"/>
<path d="M8.47505 16.1754C8.47505 16.9347 7.85944 17.5504 7.10005 17.5504C6.34066 17.5504 5.72505 16.9347 5.72505 16.1754C5.72505 15.416 6.34066 14.8004 7.10005 14.8004C7.85944 14.8004 8.47505 15.416 8.47505 16.1754Z" fill="white"/>
<path d="M8.4751 11.7754C8.4751 12.5348 7.85949 13.1504 7.1001 13.1504C6.34071 13.1504 5.7251 12.5348 5.7251 11.7754C5.7251 11.016 6.34071 10.4004 7.1001 10.4004C7.85949 10.4004 8.4751 11.016 8.4751 11.7754Z" fill="white"/>
<path d="M12.875 16.1754C12.875 16.9347 12.2594 17.5504 11.5 17.5504C10.7406 17.5504 10.125 16.9347 10.125 16.1754C10.125 15.416 10.7406 14.8004 11.5 14.8004C12.2594 14.8004 12.875 15.416 12.875 16.1754Z" fill="white"/>
<path d="M12.875 11.7754C12.875 12.5348 12.2594 13.1504 11.5 13.1504C10.7406 13.1504 10.125 12.5348 10.125 11.7754C10.125 11.016 10.7406 10.4004 11.5 10.4004C12.2594 10.4004 12.875 11.016 12.875 11.7754Z" fill="white"/>
<path d="M17.2749 16.1754C17.2749 16.9347 16.6593 17.5504 15.8999 17.5504C15.1406 17.5504 14.5249 16.9347 14.5249 16.1754C14.5249 15.416 15.1406 14.8004 15.8999 14.8004C16.6593 14.8004 17.2749 15.416 17.2749 16.1754Z" fill="white"/>
<path d="M17.2749 11.7754C17.2749 12.5348 16.6593 13.1504 15.8999 13.1504C15.1406 13.1504 14.5249 12.5348 14.5249 11.7754C14.5249 11.016 15.1406 10.4004 15.8999 10.4004C16.6593 10.4004 17.2749 11.016 17.2749 11.7754Z" fill="white"/>
</svg>
