<svg width="23" height="23" viewBox="0 0 23 23" fill="none" xmlns="http://www.w3.org/2000/svg">
<path d="M18.1 2.7V1.98C18.1 1.16262 17.4374 0.5 16.62 0.5H16.28C15.4626 0.5 14.8 1.16262 14.8 1.98V2.7H8.2V1.98C8.2 1.16262 7.53738 0.5 6.72 0.5H6.38C5.56262 0.5 4.9 1.16262 4.9 1.98V2.7C4.43331 2.7 3.96662 2.7 3.49992 2.7C1.84313 2.7 0.500013 4.04304 0.499964 5.69983C0.49983 10.2999 0.49994 14.8999 0.499984 19.5C0.5 21.1569 1.83682 22.5 3.49367 22.5C7.56532 22.5 14.8711 22.5 19.5014 22.5C21.1583 22.5 22.5 21.1569 22.5 19.5C22.5 14.9 22.5 10.3 22.5 5.7C22.5 4.04315 21.1569 2.7 19.5 2.7C19.0333 2.7 18.5667 2.7 18.1 2.7Z" fill="#009D8C"/>
<path d="M8.4751 16.1758C8.4751 16.9352 7.85949 17.5508 7.1001 17.5508C6.34071 17.5508 5.7251 16.9352 5.7251 16.1758C5.7251 15.4164 6.34071 14.8008 7.1001 14.8008C7.85949 14.8008 8.4751 15.4164 8.4751 16.1758Z" fill="white"/>
<path d="M8.4751 11.7754C8.4751 12.5348 7.85949 13.1504 7.1001 13.1504C6.34071 13.1504 5.7251 12.5348 5.7251 11.7754C5.7251 11.016 6.34071 10.4004 7.1001 10.4004C7.85949 10.4004 8.4751 11.016 8.4751 11.7754Z" fill="white"/>
<path d="M12.875 16.1758C12.875 16.9352 12.2594 17.5508 11.5 17.5508C10.7406 17.5508 10.125 16.9352 10.125 16.1758C10.125 15.4164 10.7406 14.8008 11.5 14.8008C12.2594 14.8008 12.875 15.4164 12.875 16.1758Z" fill="white"/>
<path d="M12.875 11.7754C12.875 12.5348 12.2594 13.1504 11.5 13.1504C10.7406 13.1504 10.125 12.5348 10.125 11.7754C10.125 11.016 10.7406 10.4004 11.5 10.4004C12.2594 10.4004 12.875 11.016 12.875 11.7754Z" fill="white"/>
<path d="M17.2749 16.1758C17.2749 16.9352 16.6593 17.5508 15.8999 17.5508C15.1405 17.5508 14.5249 16.9352 14.5249 16.1758C14.5249 15.4164 15.1405 14.8008 15.8999 14.8008C16.6593 14.8008 17.2749 15.4164 17.2749 16.1758Z" fill="white"/>
<path d="M17.2749 11.7754C17.2749 12.5348 16.6593 13.1504 15.8999 13.1504C15.1405 13.1504 14.5249 12.5348 14.5249 11.7754C14.5249 11.016 15.1405 10.4004 15.8999 10.4004C16.6593 10.4004 17.2749 11.016 17.2749 11.7754Z" fill="white"/>
</svg>
