<svg width="40" height="40" viewBox="0 0 40 40" fill="none" xmlns="http://www.w3.org/2000/svg">
<rect width="40" height="40" rx="20" fill="#F4E6E6"/>
<g clip-path="url(#clip0)">
<path d="M18.5845 23.336C18.4672 23.336 18.3645 23.2993 18.2765 23.226C18.1885 23.138 18.1445 23.0353 18.1445 22.918C18.1445 22.83 18.1445 22.742 18.1445 22.654C18.1445 22.566 18.1445 22.4853 18.1445 22.412C18.2325 21.8987 18.4012 21.4367 18.6505 21.026C18.9145 20.6007 19.2152 20.212 19.5525 19.86C19.9045 19.508 20.2419 19.178 20.5645 18.87C20.8872 18.562 21.1585 18.2613 21.3785 17.968C21.6132 17.66 21.7379 17.352 21.7525 17.044C21.7819 16.7213 21.7159 16.45 21.5545 16.23C21.4079 16.01 21.1952 15.8413 20.9165 15.724C20.6525 15.6067 20.3665 15.548 20.0585 15.548C19.4719 15.548 19.0099 15.6873 18.6725 15.966C18.3352 16.2447 18.0932 16.6553 17.9465 17.198C17.9025 17.3593 17.8292 17.4913 17.7265 17.594C17.6239 17.682 17.4699 17.726 17.2645 17.726H14.5805C14.4339 17.726 14.3092 17.6747 14.2065 17.572C14.1039 17.4547 14.0525 17.308 14.0525 17.132C14.0672 16.5453 14.2065 15.9733 14.4705 15.416C14.7492 14.8587 15.1452 14.3527 15.6585 13.898C16.1865 13.4287 16.8392 13.062 17.6165 12.798C18.3939 12.5193 19.2959 12.38 20.3225 12.38C21.4225 12.38 22.3319 12.512 23.0505 12.776C23.7839 13.04 24.3559 13.3847 24.7665 13.81C25.1919 14.2353 25.4925 14.69 25.6685 15.174C25.8445 15.6433 25.9252 16.0833 25.9105 16.494C25.8812 17.022 25.7712 17.4987 25.5805 17.924C25.3899 18.3493 25.1479 18.7453 24.8545 19.112C24.5759 19.464 24.2752 19.8087 23.9525 20.146C23.6445 20.4687 23.3585 20.7987 23.0945 21.136C22.8305 21.4587 22.6325 21.8033 22.5005 22.17C22.4712 22.2727 22.4419 22.3753 22.4125 22.478C22.3832 22.566 22.3612 22.6613 22.3465 22.764C22.2585 22.9547 22.1632 23.1013 22.0605 23.204C21.9725 23.292 21.8405 23.336 21.6645 23.336H18.5845ZM18.6285 28C18.4672 28 18.3352 27.9487 18.2325 27.846C18.1299 27.7287 18.0785 27.5967 18.0785 27.45V24.942C18.0785 24.7953 18.1299 24.6707 18.2325 24.568C18.3352 24.4507 18.4672 24.392 18.6285 24.392H21.4445C21.6059 24.392 21.7379 24.4507 21.8405 24.568C21.9579 24.6707 22.0165 24.7953 22.0165 24.942V27.45C22.0165 27.5967 21.9579 27.7287 21.8405 27.846C21.7379 27.9487 21.6059 28 21.4445 28H18.6285Z" fill="#A9474A"/>
</g>
<defs>
<clipPath id="clip0">
<rect width="24" height="24" fill="white" transform="translate(8 8)"/>
</clipPath>
</defs>
</svg>
