<svg width="40" height="40" viewBox="0 0 40 40" fill="none" xmlns="http://www.w3.org/2000/svg">
<rect width="40" height="40" rx="20" fill="#E8F1F2"/>
<path d="M23 22C20.33 22 15 23.33 15 26C15 27.1046 15.8954 28 17 28H29C30.1046 28 31 27.1046 31 26C31 23.33 25.67 22 23 22ZM23 20C24.0609 20 25.0783 19.5786 25.8284 18.8284C26.5786 18.0783 27 17.0609 27 16C27 14.9391 26.5786 13.9217 25.8284 13.1716C25.0783 12.4214 24.0609 12 23 12C21.9391 12 20.9217 12.4214 20.1716 13.1716C19.4214 13.9217 19 14.9391 19 16C19 17.0609 19.4214 18.0783 20.1716 18.8284C20.9217 19.5786 21.9391 20 23 20ZM12.7414 21.4341C12.9005 21.3393 13.099 21.3402 13.2572 21.4364L14.4354 22.153C14.8136 22.383 15.2821 22.0444 15.1824 21.6131L14.8684 20.2557C14.8264 20.074 14.8889 19.884 15.0307 19.7629L16.0926 18.8554C16.4298 18.5673 16.2528 18.0154 15.8109 17.9771L14.4108 17.856C14.2258 17.84 14.0649 17.7228 13.993 17.5517L13.4568 16.2765C13.2857 15.8696 12.7099 15.8678 12.5362 16.2735L11.9879 17.5546C11.9153 17.7242 11.7553 17.84 11.5716 17.856L10.1806 17.9772C9.73994 18.0155 9.56248 18.5651 9.89742 18.8539L10.9487 19.7606C11.0907 19.883 11.1523 20.0746 11.1082 20.2568L10.7798 21.614C10.6756 22.0445 11.1412 22.3878 11.5217 22.1611L12.7414 21.4341Z" fill="#006A75"/>
</svg>
