<svg width="66" height="66" viewBox="0 0 66 66" fill="none" xmlns="http://www.w3.org/2000/svg">
<rect opacity="0.9" width="66" height="66" rx="33" fill="#F7F7F7"/>
<path d="M21.625 42.75V33C21.6254 32.5692 21.7968 32.1561 22.1014 31.8514C22.4061 31.5468 22.8192 31.3754 23.25 31.375H33C33.4308 31.3754 33.8439 31.5468 34.1486 31.8514C34.4532 32.1561 34.6246 32.5692 34.625 33V42.75C34.6246 43.1808 34.4532 43.5939 34.1486 43.8986C33.8439 44.2032 33.4308 44.3746 33 44.375H23.25C22.8192 44.3746 22.4061 44.2032 22.1014 43.8986C21.7968 43.5939 21.6254 43.1808 21.625 42.75Z" fill="#828282" stroke="#828282"/>
<path d="M34.625 20.8125L35.7706 21.9581L33.6744 24.0625H37.875C39.3829 24.0642 40.8285 24.664 41.8948 25.7302C42.961 26.7965 43.5608 28.2421 43.5625 29.75V33.8125H41.9375V29.75C41.9362 28.673 41.5078 27.6404 40.7462 26.8788C39.9846 26.1172 38.952 25.6888 37.875 25.6875H33.6744L35.7706 27.7919L34.625 28.9375L30.5625 24.875L34.625 20.8125Z" fill="#828282" stroke="#828282"/>
</svg>
