<svg width="21" height="21" viewBox="0 0 21 21" fill="none" xmlns="http://www.w3.org/2000/svg">
<path fill-rule="evenodd" clip-rule="evenodd" d="M2.89254 8.98666C2.89254 5.64389 5.60239 2.93404 8.94516 2.93404C12.2879 2.93404 14.9978 5.64389 14.9978 8.98666C14.9978 12.3294 12.2879 15.0393 8.94516 15.0393C5.60239 15.0393 2.89254 12.3294 2.89254 8.98666ZM8.94516 0.916504C4.48813 0.916504 0.875 4.52964 0.875 8.98666C0.875 13.4437 4.48813 17.0568 8.94516 17.0568C10.8309 17.0568 12.5656 16.41 13.9395 15.3261L18.6966 20.0832L20.1232 18.6566L15.3559 13.8893C16.3968 12.5303 17.0153 10.8307 17.0153 8.98666C17.0153 4.52964 13.4022 0.916504 8.94516 0.916504Z" fill="#BDBDBD"/>
</svg>
