<svg width="40" height="40" viewBox="0 0 40 40" fill="none" xmlns="http://www.w3.org/2000/svg">
<rect width="40" height="40" rx="20" fill="#E6F5F4"/>
<path d="M20.0039 23.0557C19.1935 23.0557 18.4163 22.7338 17.8433 22.1608C17.2702 21.5878 16.9483 20.8106 16.9483 20.0002C16.9483 19.1898 17.2702 18.4126 17.8433 17.8396C18.4163 17.2665 19.1935 16.9446 20.0039 16.9446C20.8143 16.9446 21.5915 17.2665 22.1645 17.8396C22.7375 18.4126 23.0594 19.1898 23.0594 20.0002C23.0594 20.8106 22.7375 21.5878 22.1645 22.1608C21.5915 22.7338 20.8143 23.0557 20.0039 23.0557ZM27.1581 21.3723C26.7437 21.0463 26.5515 20.5274 26.5515 20.0002C26.5515 19.4569 26.7534 18.924 27.1834 18.5918L28.3325 17.7041C28.4983 17.5732 28.542 17.3375 28.4372 17.1454L26.6912 14.1248C26.5864 13.9327 26.3507 13.8541 26.1586 13.9327L24.7653 14.4923C24.2807 14.6869 23.7441 14.6064 23.2954 14.3394C22.8334 14.0645 22.4635 13.6212 22.3892 13.0888L22.1864 11.6367C22.1687 11.5339 22.1151 11.4406 22.0352 11.3735C21.9553 11.3064 21.8543 11.2697 21.7499 11.27H18.2578C18.0396 11.27 17.8563 11.4272 17.8213 11.6367L17.6186 13.0888C17.5442 13.6212 17.1744 14.0645 16.7124 14.3394C16.2636 14.6064 15.727 14.6869 15.2425 14.4923L13.8491 13.9327C13.657 13.8541 13.4213 13.9327 13.3166 14.1248L11.5705 17.1454C11.457 17.3375 11.5094 17.5732 11.6753 17.7041L12.8244 18.5918C13.2543 18.924 13.4563 19.4569 13.4563 20.0002C13.4563 20.5274 13.264 21.0463 12.8496 21.3723L11.6753 22.2962C11.5094 22.4272 11.457 22.6629 11.5705 22.8549L13.3166 25.8756C13.4213 26.0676 13.657 26.1375 13.8491 26.0676L15.2341 25.5059C15.7227 25.3077 16.2665 25.3932 16.719 25.6638C17.1776 25.938 17.544 26.3771 17.6178 26.9063L17.8213 28.3637C17.8563 28.5732 18.0396 28.7303 18.2578 28.7303H21.7499C21.9682 28.7303 22.1515 28.5732 22.1864 28.3637L22.3909 26.8993C22.4643 26.3733 22.826 25.9345 23.283 25.664C23.7402 25.3934 24.2873 25.3086 24.7797 25.5083L26.1586 26.0676C26.3507 26.1375 26.5864 26.0676 26.6912 25.8756L28.4372 22.8549C28.542 22.6629 28.4983 22.4272 28.3325 22.2962L27.1581 21.3723Z" fill="#009D8C"/>
</svg>
