<svg width="16" height="16" viewBox="0 0 16 16" fill="none" xmlns="http://www.w3.org/2000/svg">
<path d="M12.425 12.0425C12.23 11.4425 11.6675 11 11 11H10.25V8.75C10.25 8.55109 10.171 8.36032 10.0303 8.21967C9.88968 8.07902 9.69891 8 9.5 8H5V6.5H6.5C6.69891 6.5 6.88968 6.42098 7.03033 6.28033C7.17098 6.13968 7.25 5.94891 7.25 5.75V4.25H8.75C9.14783 4.25 9.52936 4.09196 9.81066 3.81066C10.092 3.52936 10.25 3.14782 10.25 2.75V2.4425C11.1474 2.80427 11.9437 3.37811 12.5708 4.11488C13.198 4.85165 13.6372 5.72941 13.851 6.67303C14.0648 7.61666 14.0467 8.59803 13.7984 9.53315C13.5501 10.4683 13.0788 11.3293 12.425 12.0425ZM7.25 13.9475C4.2875 13.58 2 11.06 2 8C2 7.535 2.06 7.085 2.1575 6.6575L5.75 10.25V11C5.75 11.3978 5.90804 11.7794 6.18934 12.0607C6.47064 12.342 6.85218 12.5 7.25 12.5V13.9475ZM8 0.5C7.01509 0.5 6.03982 0.693993 5.12987 1.0709C4.21993 1.44781 3.39314 2.00026 2.6967 2.6967C1.29018 4.10322 0.5 6.01088 0.5 8C0.5 9.98912 1.29018 11.8968 2.6967 13.3033C3.39314 13.9997 4.21993 14.5522 5.12987 14.9291C6.03982 15.306 7.01509 15.5 8 15.5C9.98912 15.5 11.8968 14.7098 13.3033 13.3033C14.7098 11.8968 15.5 9.98912 15.5 8C15.5 7.01509 15.306 6.03982 14.9291 5.12987C14.5522 4.21993 13.9997 3.39314 13.3033 2.6967C12.6069 2.00026 11.7801 1.44781 10.8701 1.0709C9.96019 0.693993 8.98491 0.5 8 0.5Z" fill="black"/>
</svg>
