<svg width="18" height="20" viewBox="0 0 18 20" fill="none" xmlns="http://www.w3.org/2000/svg">
<path d="M9 0C8.20435 0 7.44129 0.316071 6.87868 0.87868C6.31607 1.44129 6 2.20435 6 3C5.99967 3.62065 6.19186 4.22613 6.55006 4.73298C6.90826 5.23984 7.41484 5.62312 8 5.83V7H5V9H8V17.92C7.26 17.79 6.5 17.58 5.79 17.27C5.05 16.95 4.4 16.56 3.82 16.09C3.24 15.62 2.78 15.11 2.44 14.55L4 13L0 10V13C0 13.97 0.27 14.88 0.82 15.72C1.39791 16.5955 2.13785 17.3524 3 17.95C3.87 18.59 4.84 19.09 5.88 19.45C6.93 19.81 7.97 20 9 20C10.03 20 11.07 19.8 12.12 19.44C13.16 19.08 14.13 18.58 15 17.95C15.92 17.31 16.63 16.57 17.18 15.72C17.73 14.88 18 13.97 18 13V10L14 13L15.56 14.55C15.22 15.11 14.76 15.62 14.18 16.09C13.6 16.56 12.95 16.95 12.21 17.27C11.5 17.58 10.74 17.79 10 17.92V9H13V7H10V5.82C10.5835 5.61369 11.089 5.23193 11.4471 4.72707C11.8051 4.2222 11.9983 3.61894 12 3C12 2.20435 11.6839 1.44129 11.1213 0.87868C10.5587 0.316071 9.79565 0 9 0ZM9 2C9.26522 2 9.51957 2.10536 9.70711 2.29289C9.89464 2.48043 10 2.73478 10 3C10 3.26522 9.89464 3.51957 9.70711 3.70711C9.51957 3.89464 9.26522 4 9 4C8.73478 4 8.48043 3.89464 8.29289 3.70711C8.10536 3.51957 8 3.26522 8 3C8 2.73478 8.10536 2.48043 8.29289 2.29289C8.48043 2.10536 8.73478 2 9 2Z" fill="#BDBDBD"/>
</svg>
