<svg width="20" height="22" viewBox="0 0 20 22" fill="none" xmlns="http://www.w3.org/2000/svg">
<path d="M0.34 13.6301C0.94 13.4101 1.56 13.3001 2.22 13.3001C3.56 13.3001 4.73 13.7201 5.73 14.5601L2.59 17.7001C1.54825 16.5265 0.779789 15.1364 0.34 13.6301ZM13.56 8.80008C15.53 10.2701 17.66 10.6301 19.94 9.88008C19.97 10.0901 20 10.4701 20 11.0001C20 12.0301 19.75 13.1801 19.28 14.4501C18.81 15.7101 18.23 16.7301 17.55 17.5001L11.22 11.1901L13.56 8.80008ZM6.77 15.6401C7.83 17.1701 8.05 18.8401 7.42 20.6601C6 20.2501 4.73 19.6101 3.67 18.7301L6.77 15.6401ZM10.19 12.2201L16.5 18.5501C14.33 20.4501 11.78 21.2501 8.88 20.9401C9.09 20.2801 9.2 19.5601 9.2 18.7801C9.2 18.1601 9.06 17.4301 8.78 16.6001C8.5 15.7701 8.17 15.0901 7.8 14.5601L10.19 12.2201ZM6.81 13.5001C5.8987 12.6851 4.78164 12.1352 3.58 11.9101C2.36 11.6801 1.19 11.7501 0.0599999 12.1301C0.0299999 11.9101 0 11.5301 0 11.0001C0 9.97008 0.25 8.82008 0.72 7.55008C1.19 6.29008 1.77 5.27008 2.45 4.50008L9.11 11.1901L6.81 13.5001ZM13.56 6.73008C12.22 5.08008 11.91 3.28008 12.63 1.34008C13.25 1.50008 13.96 1.80008 14.76 2.26008C15.55 2.71008 16.2 3.16008 16.7 3.59008L13.56 6.73008ZM19.66 8.38008C19.06 8.59008 18.44 8.70008 17.78 8.70008C16.69 8.70008 15.64 8.38008 14.64 7.72008L17.73 4.67008C18.61 5.77008 19.25 7.00008 19.66 8.38008ZM10.19 10.1101L3.5 3.45008C5.67 1.55008 8.22 0.750077 11.13 1.06008C10.91 1.72008 10.8 2.44008 10.8 3.22008C10.8 3.94008 10.96 4.75008 11.29 5.66008C11.62 6.56008 12 7.28008 12.5 7.81008L10.19 10.1101Z" fill="#BDBDBD"/>
</svg>
