<svg width="21" height="20" viewBox="0 0 21 20" fill="none" xmlns="http://www.w3.org/2000/svg">
<path d="M13 16.54C15.13 16.21 17.5 16 20 16V20H3C3 19.35 6.2 17.86 11 16.9V10.4C10.16 10.65 9.45 11.21 9 11.95C8.68985 11.4311 8.2504 11.0015 7.72458 10.7032C7.19875 10.4049 6.60455 10.248 6 10.248C5.39545 10.248 4.80125 10.4049 4.27542 10.7032C3.7496 11.0015 3.31015 11.4311 3 11.95C3.03 8.37 6.5 5.43 11 5.04V5C11 4.73478 11.1054 4.48043 11.2929 4.29289C11.4804 4.10536 11.7348 4 12 4C12.2652 4 12.5196 4.10536 12.7071 4.29289C12.8946 4.48043 13 4.73478 13 5V5.04C17.5 5.43 20.96 8.37 21 11.95C20.6898 11.4311 20.2504 11.0015 19.7246 10.7032C19.1988 10.4049 18.6045 10.248 18 10.248C17.3955 10.248 16.8012 10.4049 16.2754 10.7032C15.7496 11.0015 15.3102 11.4311 15 11.95C14.55 11.21 13.84 10.65 13 10.39V16.54ZM5 0C5 0.656609 4.87067 1.30679 4.6194 1.91342C4.36812 2.52005 3.99983 3.07124 3.53553 3.53553C3.07124 3.99983 2.52005 4.36812 1.91342 4.6194C1.30679 4.87067 0.656609 5 0 5V0H5Z" fill="#BDBDBD"/>
</svg>
