<svg width="28" height="19" viewBox="0 0 28 19" fill="none" xmlns="http://www.w3.org/2000/svg">
<path d="M13.7137 10.7673L16.3491 4.56316L15.1631 2.13639H12.352V0.489258H16.1953L16.9969 2.13639H24.7055L23.6074 5.97969H18.8747L19.6104 7.48406C20.4442 7.14419 21.3488 7.01453 22.2446 7.1065C23.1403 7.19847 23.9997 7.50926 24.7471 8.01149C25.4945 8.51372 26.1069 9.19199 26.5305 9.98659C26.9541 10.7812 27.1758 11.6677 27.1762 12.5682C27.1762 15.5989 24.7165 18.0586 21.6858 18.0586C18.655 18.0586 16.1953 15.5989 16.1953 12.5682C16.1953 10.8662 16.975 9.33983 18.1938 8.34057L17.2934 6.52873L14.2737 13.6663H11.6932C11.4854 14.6841 10.9932 15.6221 10.2736 16.3714C9.55399 17.1206 8.63662 17.6503 7.628 17.899C6.61938 18.1477 5.56091 18.1051 4.57552 17.7762C3.59012 17.4474 2.71825 16.8457 2.06116 16.0411C1.40407 15.2365 0.988726 14.262 0.863368 13.2307C0.73801 12.1995 0.907783 11.1539 1.35297 10.2153C1.79815 9.27669 2.50048 8.48365 3.37838 7.92828C4.25629 7.3729 5.27373 7.07798 6.31255 7.07777C9.1566 7.07777 11.4955 9.241 11.803 12.0192H12.4399L9.93624 5.97969H9.05777C8.60755 5.97969 8.2342 5.60634 8.2342 5.15612C8.2342 4.70591 8.60755 4.33256 9.05777 4.33256H12.0775C12.5277 4.33256 12.9011 4.70591 12.9011 5.15612C12.9011 5.60634 12.5277 5.97969 12.0775 5.97969H11.77L13.7137 10.7673ZM6.31255 8.7249C4.19325 8.7249 2.46925 10.4489 2.46925 12.5682C2.47125 13.4911 2.80488 14.3825 3.40931 15.0799C4.01374 15.7773 4.84869 16.2342 5.76192 16.3673C6.67514 16.5004 7.60579 16.3009 8.38415 15.8051C9.16252 15.3093 9.73675 14.5502 10.0021 13.6663H5.21447V12.0192H10.1229C9.84839 10.1524 8.24519 8.7249 6.31255 8.7249ZM21.6858 8.7249C21.2136 8.7249 20.7524 8.81275 20.3351 8.96648L22.4544 13.3149L20.972 14.0396L18.9405 9.87789C18.2597 10.5697 17.8425 11.525 17.8425 12.5682C17.8425 14.6875 19.5665 16.4115 21.6858 16.4115C23.8051 16.4115 25.5291 14.6875 25.5291 12.5682C25.5291 10.4489 23.8051 8.7249 21.6858 8.7249Z" fill="#BDBDBD"/>
</svg>
