<svg width="20" height="20" viewBox="0 0 20 20" fill="none" xmlns="http://www.w3.org/2000/svg">
<path d="M14 1H2C1.46957 1 0.960859 1.21071 0.585786 1.58579C0.210714 1.96086 0 2.46957 0 3V8C0 8.53043 0.210714 9.03914 0.585786 9.41421C0.960859 9.78929 1.46957 10 2 10H5.15C5.57 10 5.95 10.24 6.1 10.63C6.26543 11.1332 6.62345 11.5504 7.09573 11.7903C7.568 12.0302 8.11607 12.0732 8.62 11.91C9.23 11.71 9.7 11.23 9.9 10.63C10.05 10.24 10.43 10 10.85 10H14C14.5304 10 15.0391 9.78929 15.4142 9.41421C15.7893 9.03914 16 8.53043 16 8V3C16 2.46957 15.7893 1.96086 15.4142 1.58579C15.0391 1.21071 14.5304 1 14 1ZM14 8H9.35C9.1 7.46 8.59 7.09 8 7C7.41 7.09 6.9 7.46 6.65 8H2V3H14V8ZM20 0V13.5C20 14.3536 19.8319 15.1988 19.5052 15.9874C19.1786 16.7761 18.6998 17.4926 18.0962 18.0962C17.4926 18.6998 16.7761 19.1786 15.9874 19.5052C15.1988 19.8319 14.3536 20 13.5 20C11.79 20 10.15 19.32 8.93 18.12C6.95 18.58 4.88 17.79 3.71 16.12L5.62 15.29C6.5 16.22 7.84 16.5 9 16C9.2 15.91 9.39 15.8 9.56 15.67C10.4 15.05 10.87 14.04 10.78 13L12.69 12.17C13.1 14.04 12.41 16 10.9 17.17C11.66 17.71 12.57 18 13.5 18C16 18 18 16 18 13.5V0H20Z" fill="#BDBDBD"/>
</svg>
