<svg width="22" height="14" viewBox="0 0 22 14" fill="none" xmlns="http://www.w3.org/2000/svg">
<path d="M12.4934 13.2197C9.05708 13.2197 6.05615 11.0905 4.38591 9.26872L1.05039 11.8365C0.587095 12.1934 -0.104605 11.8132 0.0137978 11.2666L0.937337 6.9995L0.0134158 2.73204C-0.104987 2.18544 0.586713 1.80561 1.05001 2.16211L4.38552 4.7299C6.05576 2.90854 9.05708 0.779278 12.4934 0.779278C17.7436 0.779278 22 5.75546 22 6.9995C22 8.24355 17.7436 13.2197 12.4934 13.2197ZM15.8328 6.06647C15.3267 6.06647 14.9161 6.48439 14.9161 6.9995C14.9161 7.515 15.3267 7.93254 15.8328 7.93254C16.3392 7.93254 16.7494 7.515 16.7494 6.9995C16.7494 6.48439 16.3388 6.06647 15.8328 6.06647Z" fill="#BDBDBD"/>
</svg>
