<svg width="14" height="23" viewBox="0 0 14 23" fill="none" xmlns="http://www.w3.org/2000/svg">
<path d="M10.83 9.43C12.2172 10.5261 13.133 12.1108 13.39 13.86C13.6722 15.4635 13.3555 17.1148 12.5 18.5L10.78 17.5C11.2154 16.7389 11.443 15.8768 11.44 15C11.4185 13.9434 11.0767 12.9182 10.46 12.06L4.18 22.93L2.44 21.95L5.44 16.75L3.71 15.76L2.21 18.34L0.5 17.36L5.63 8.45C4.60798 7.35061 3.96642 5.95181 3.8 4.46C3.60779 2.94829 3.92069 1.41544 4.69 0.1L6.43 1.13C6.09307 1.69065 5.87329 2.31378 5.78391 2.96175C5.69454 3.60971 5.73743 4.26907 5.91 4.9C6.06332 5.53651 6.34685 6.13436 6.7427 6.65585C7.13856 7.17735 7.63815 7.61118 8.21 7.93L10.83 9.43ZM11 4C10.6044 4 10.2178 4.1173 9.88886 4.33706C9.55996 4.55682 9.30362 4.86918 9.15224 5.23463C9.00087 5.60009 8.96126 6.00222 9.03843 6.39018C9.1156 6.77814 9.30608 7.13451 9.58579 7.41421C9.86549 7.69392 10.2219 7.8844 10.6098 7.96157C10.9978 8.03874 11.3999 7.99913 11.7654 7.84776C12.1308 7.69638 12.4432 7.44004 12.6629 7.11114C12.8827 6.78224 13 6.39556 13 6C13 5.46957 12.7893 4.96086 12.4142 4.58579C12.0391 4.21071 11.5304 4 11 4ZM8.5 0C8.20333 0 7.91332 0.0879735 7.66665 0.252796C7.41997 0.417618 7.22771 0.651886 7.11418 0.925975C7.00065 1.20006 6.97094 1.50166 7.02882 1.79264C7.0867 2.08361 7.22956 2.35088 7.43934 2.56066C7.64912 2.77044 7.91639 2.9133 8.20736 2.97118C8.49834 3.02906 8.79994 2.99935 9.07403 2.88582C9.34811 2.77229 9.58238 2.58003 9.7472 2.33336C9.91203 2.08668 10 1.79667 10 1.5C10 1.10218 9.84196 0.720644 9.56066 0.43934C9.27936 0.158035 8.89782 0 8.5 0Z" fill="#BDBDBD"/>
</svg>
