<svg width="15" height="22" viewBox="0 0 15 22" fill="none" xmlns="http://www.w3.org/2000/svg">
<path d="M13.4701 7.67H15.0001V22H13.4701V11.6C12.6701 11.44 11.9201 11.14 11.2101 10.71C10.5001 10.28 9.90007 9.78 9.39007 9.2L8.77007 12.27L11.0001 14.47V22H9.00007V16L6.76007 13.8L4.89007 22H2.73007C2.73007 22 5.86007 6.22 5.89007 6.09C6.00007 5.61 6.22007 5.24 6.59007 5C6.96007 4.73 7.33007 4.6 7.71007 4.6C8.10007 4.6 8.46007 4.69 8.79007 4.87C9.13007 5.04 9.39007 5.29 9.58007 5.61L10.6401 7.24C10.9301 7.78 11.3201 8.25 11.8101 8.63C12.3001 9.01 12.8601 9.3 13.4701 9.5V7.67ZM4.55007 4.89L3.40007 4.65C2.83007 4.5 2.31007 4.62 1.84007 4.94C1.38007 5.26 1.10007 5.7 1.00007 6.28L0.190072 10.26C0.160072 10.55 0.220072 10.81 0.380072 11.05C0.540072 11.29 0.750071 11.42 1.00007 11.46L3.21007 11.89L4.55007 4.89ZM9.00007 0C7.90007 0 7.00007 0.9 7.00007 2C7.00007 3.1 7.90007 4 9.00007 4C10.1001 4 11.0001 3.11 11.0001 2C11.0001 0.89 10.1101 0 9.00007 0Z" fill="#BDBDBD"/>
</svg>
