<svg width="24" height="22" viewBox="0 0 24 22" fill="none" xmlns="http://www.w3.org/2000/svg">
<path d="M22 21V19C20.58 19.05 19.21 18.9 18 18C16.23 19.25 13.77 19.25 12 18C10.23 19.25 7.77 19.25 6 18C4.79 18.9 3.42 19.05 2 19V21C3.38 21.05 4.79 20.94 6 20.25C7.84 21.25 10.16 21.25 12 20.25C13.84 21.25 16.16 21.25 18 20.25C19.21 20.94 20.62 21.05 22 21ZM23.39 15.21C21.13 14.29 18.3 13.56 15.66 13.22L19.36 4.88L20.67 4.41L22 1.41L18.8 0L17.5 2.95L18 4.27L16.31 7.97L13.5 9.47L11 8.2C10.9297 8.12781 10.839 8.07894 10.74 8.06C9.82 7.73 8.77 8.32 8.5 9.23L7.13 13.41C6.59 13.18 1.25 14.97 0.915 15.12L0 15.47C1.33 16.04 2.2 16.39 3.94 16.88C4.75 16.63 5.44 16.09 6 15.47C7.5 17.42 10.5 17.42 12 15.47C13.5 17.42 16.5 17.42 18 15.47C18.56 16.09 19.25 16.63 20.06 16.88L22.95 15.91L24 15.47L23.39 15.21ZM14.06 13.08C13.07 13 12.06 13 11.06 13L11.77 10.83L13.5 11.77L15 10.92L14.06 13.08ZM14 5.5C14 6.61 13.11 7.5 12 7.5C10.89 7.5 10 6.61 10 5.5C10 4.39 10.9 3.5 12 3.5C13.1 3.5 14 4.4 14 5.5Z" fill="#BDBDBD"/>
</svg>
