<svg width="22" height="22" viewBox="0 0 22 22" fill="none" xmlns="http://www.w3.org/2000/svg">
<path d="M18.7733 3.22667C16.7689 1.24667 14.0311 0 11 0C4.93778 0 0 4.93778 0 11C0 14.0311 1.24667 16.7689 3.22667 18.7733C5.23111 20.7533 7.96889 22 11 22C14.0311 22 16.7689 20.7533 18.7733 18.7733C20.7533 16.7689 22 14.0311 22 11C22 7.96889 20.7533 5.23111 18.7733 3.22667ZM17.0378 5.91556L13.4444 13.4444L5.91555 17.0378C5.81778 17.0867 5.72 17.1111 5.59778 17.1111C5.40222 17.1111 5.23111 17.0378 5.08444 16.8911C4.86444 16.6711 4.81556 16.3533 4.93778 16.06L8.55555 8.55556L16.0844 4.93778C16.3533 4.81556 16.6956 4.86444 16.8911 5.08444C17.1111 5.30444 17.16 5.62222 17.0378 5.91556ZM12.4667 11C12.4667 11.8067 11.8067 12.4667 11 12.4667C10.1933 12.4667 9.53333 11.8067 9.53333 11C9.53333 10.1933 10.1933 9.53333 11 9.53333C11.8067 9.53333 12.4667 10.1933 12.4667 11Z" fill="#BDBDBD"/>
</svg>
