<svg width="24" height="21" viewBox="0 0 24 21" fill="none" xmlns="http://www.w3.org/2000/svg">
<path d="M5 19.5002C4.07174 19.5002 3.1815 19.1314 2.52513 18.4751C1.86875 17.8187 1.5 16.9285 1.5 16.0002C1.5 15.0719 1.86875 14.1817 2.52513 13.5253C3.1815 12.8689 4.07174 12.5002 5 12.5002C5.92826 12.5002 6.8185 12.8689 7.47487 13.5253C8.13125 14.1817 8.5 15.0719 8.5 16.0002C8.5 16.9285 8.13125 17.8187 7.47487 18.4751C6.8185 19.1314 5.92826 19.5002 5 19.5002ZM5 11.0002C3.67392 11.0002 2.40215 11.527 1.46447 12.4647C0.526784 13.4023 0 14.6741 0 16.0002C0 17.3263 0.526784 18.598 1.46447 19.5357C2.40215 20.4734 3.67392 21.0002 5 21.0002C6.32608 21.0002 7.59785 20.4734 8.53553 19.5357C9.47322 18.598 10 17.3263 10 16.0002C10 14.6741 9.47322 13.4023 8.53553 12.4647C7.59785 11.527 6.32608 11.0002 5 11.0002ZM14.8 9.0002H19V7.2002H15.8L13.86 3.9302C13.57 3.4302 13 3.1002 12.4 3.1002C11.93 3.1002 11.5 3.2902 11.2 3.6002L7.5 7.2902C7.19 7.6002 7 8.0002 7 8.5002C7 9.1302 7.33 9.6602 7.85 9.9702L11.2 12.0002V17.0002H13V10.5002L10.75 8.8502L13.07 6.5002L14.8 9.0002ZM19 19.5002C18.0717 19.5002 17.1815 19.1314 16.5251 18.4751C15.8687 17.8187 15.5 16.9285 15.5 16.0002C15.5 15.0719 15.8687 14.1817 16.5251 13.5253C17.1815 12.8689 18.0717 12.5002 19 12.5002C19.9283 12.5002 20.8185 12.8689 21.4749 13.5253C22.1313 14.1817 22.5 15.0719 22.5 16.0002C22.5 16.9285 22.1313 17.8187 21.4749 18.4751C20.8185 19.1314 19.9283 19.5002 19 19.5002ZM19 11.0002C17.6739 11.0002 16.4021 11.527 15.4645 12.4647C14.5268 13.4023 14 14.6741 14 16.0002C14 17.3263 14.5268 18.598 15.4645 19.5357C16.4021 20.4734 17.6739 21.0002 19 21.0002C19.6566 21.0002 20.3068 20.8709 20.9134 20.6196C21.52 20.3683 22.0712 20 22.5355 19.5357C22.9998 19.0714 23.3681 18.5202 23.6194 17.9136C23.8707 17.307 24 16.6568 24 16.0002C24 15.3436 23.8707 14.6934 23.6194 14.0868C23.3681 13.4802 22.9998 12.929 22.5355 12.4647C22.0712 12.0004 21.52 11.6321 20.9134 11.3808C20.3068 11.1295 19.6566 11.0002 19 11.0002ZM16 3.8002C17 3.8002 17.8 3.0002 17.8 2.0002C17.8 1.0002 17 0.200195 16 0.200195C15 0.200195 14.2 1.0002 14.2 2.0002C14.2 3.0002 15 3.8002 16 3.8002Z" fill="#BDBDBD"/>
</svg>
