<svg width="22" height="15" viewBox="0 0 22 15" fill="none" xmlns="http://www.w3.org/2000/svg">
<path d="M19.34 12.93L17.4 11C18.5 10.91 21.66 10.53 21.97 8.36C21.9942 8.12372 21.9262 7.88723 21.78 7.7C21.12 6.82 18.88 4.07 14 0H11V2H13L15 4L11 6L2 5L0 8L4.58 9.38L1.58 11.09C1.22 11.26 0 11.89 0 13.05C0 13.4 2.98023e-08 13.89 0.33 14.32C0.83 15 1.71 15 2 15H8C9.26 15 11.53 14.13 11.93 11H14.59L16.59 13H14V15H19C20.65 15 22 13.65 22 12H20C20 12.43 19.73 12.79 19.34 12.93ZM8 13H2.25C2.33 12.95 2.41 12.91 2.5 12.87L7.22 10.17L9.92 11C9.58 12.84 8.28 13 8 13Z" fill="#BDBDBD"/>
</svg>
