<svg width="267" height="261" viewBox="0 0 267 261" fill="none" xmlns="http://www.w3.org/2000/svg">
<path d="M21.6384 59.5366C21.6384 58.4321 20.7429 57.5366 19.6384 57.5366C18.5338 57.5366 17.6384 58.4321 17.6384 59.5366H21.6384ZM17.6384 68.7392C17.6384 69.8438 18.5338 70.7392 19.6384 70.7392C20.7429 70.7392 21.6384 69.8438 21.6384 68.7392H17.6384ZM26.0358 71.0298C25.1831 71.732 25.0612 72.9924 25.7633 73.8451C26.4655 74.6977 27.726 74.8197 28.5786 74.1175L26.0358 71.0298ZM35.0971 68.7493C35.9498 68.0471 36.0718 66.7867 35.3696 65.9341C34.6674 65.0814 33.407 64.9594 32.5543 65.6616L35.0971 68.7493ZM30.0711 78.2969C28.9966 78.0411 27.9181 78.7047 27.6622 79.7793C27.4064 80.8538 28.0701 81.9323 29.1446 82.1881L30.0711 78.2969ZM37.1969 84.1053C38.2714 84.3612 39.3499 83.6975 39.6058 82.623C39.8616 81.5484 39.1979 80.47 38.1234 80.2141L37.1969 84.1053ZM25.2426 86.5964C24.7282 85.619 23.5187 85.2436 22.5413 85.7581C21.5638 86.2725 21.1885 87.482 21.7029 88.4594L25.2426 86.5964ZM25.5374 95.7448C26.0518 96.7223 27.2612 97.0976 28.2387 96.5832C29.2162 96.0687 29.5915 94.8593 29.077 93.8818L25.5374 95.7448ZM16.8445 88.3841C17.3174 87.3859 16.8915 86.1933 15.8932 85.7205C14.895 85.2476 13.7024 85.6735 13.2296 86.6718L16.8445 88.3841ZM9.77859 93.9572C9.30574 94.9554 9.73165 96.148 10.7299 96.6208C11.7281 97.0937 12.9207 96.6678 13.3935 95.6695L9.77859 93.9572ZM10.5155 82.1881C11.5901 81.9323 12.2537 80.8538 11.9979 79.7793C11.7421 78.7047 10.6636 78.0411 9.58905 78.2969L10.5155 82.1881ZM1.53676 80.2141C0.462227 80.47 -0.201453 81.5484 0.0543876 82.623C0.310229 83.6975 1.38871 84.3612 2.46324 84.1053L1.53676 80.2141ZM7.10584 65.6616C6.25319 64.9594 4.99275 65.0814 4.29056 65.9341C3.58838 66.7867 3.71036 68.0471 4.56301 68.7493L7.10584 65.6616ZM11.0815 74.1175C11.9342 74.8197 13.1946 74.6977 13.8968 73.8451C14.599 72.9924 14.477 71.732 13.6244 71.0298L11.0815 74.1175ZM17.6384 59.5366V68.7392H21.6384V59.5366H17.6384ZM28.5786 74.1175L35.0971 68.7493L32.5543 65.6616L26.0358 71.0298L28.5786 74.1175ZM29.1446 82.1881L37.1969 84.1053L38.1234 80.2141L30.0711 78.2969L29.1446 82.1881ZM21.7029 88.4594L25.5374 95.7448L29.077 93.8818L25.2426 86.5964L21.7029 88.4594ZM13.2296 86.6718L9.77859 93.9572L13.3935 95.6695L16.8445 88.3841L13.2296 86.6718ZM9.58905 78.2969L1.53676 80.2141L2.46324 84.1053L10.5155 82.1881L9.58905 78.2969ZM4.56301 68.7493L11.0815 74.1175L13.6244 71.0298L7.10584 65.6616L4.56301 68.7493Z" fill="#009D8C"/>
<path d="M231.599 36.53C231.599 35.4255 230.703 34.53 229.599 34.53C228.494 34.53 227.599 35.4255 227.599 36.53H231.599ZM227.599 44.5323C227.599 45.6369 228.494 46.5323 229.599 46.5323C230.703 46.5323 231.599 45.6369 231.599 44.5323H227.599ZM234.916 46.3295C234.067 47.0362 233.952 48.2973 234.658 49.1462C235.365 49.9951 236.626 50.1104 237.475 49.4037L234.916 46.3295ZM243.082 44.7357C243.931 44.029 244.047 42.7679 243.34 41.919C242.633 41.0701 241.372 40.9548 240.523 41.6615L243.082 44.7357ZM238.642 52.5907C237.569 52.3322 236.488 52.9933 236.23 54.0672C235.972 55.1411 236.633 56.2212 237.706 56.4796L238.642 52.5907ZM244.633 58.1468C245.707 58.4052 246.787 57.7442 247.046 56.6703C247.304 55.5964 246.643 54.5163 245.569 54.2578L244.633 58.1468ZM234.671 59.9467C234.161 58.9669 232.953 58.5862 231.973 59.0963C230.994 59.6064 230.613 60.8142 231.123 61.7939L234.671 59.9467ZM234.421 68.1291C234.932 69.1088 236.139 69.4895 237.119 68.9794C238.099 68.4693 238.479 67.2615 237.969 66.2818L234.421 68.1291ZM227.451 61.7189C227.92 60.7187 227.489 59.528 226.489 59.0593C225.489 58.5906 224.298 59.0215 223.829 60.0217L227.451 61.7189ZM220.861 66.3568C220.392 67.357 220.823 68.5478 221.823 69.0165C222.823 69.4851 224.014 69.0543 224.483 68.0541L220.861 66.3568ZM221.82 56.4796C222.894 56.2212 223.555 55.1411 223.297 54.0672C223.038 52.9933 221.958 52.3322 220.884 52.5907L221.82 56.4796ZM213.958 54.2578C212.884 54.5163 212.223 55.5964 212.481 56.6703C212.74 57.7442 213.82 58.4052 214.894 58.1468L213.958 54.2578ZM219.004 41.6615C218.155 40.9548 216.894 41.0701 216.187 41.919C215.48 42.7679 215.596 44.029 216.445 44.7357L219.004 41.6615ZM222.052 49.4037C222.901 50.1104 224.162 49.9951 224.869 49.1462C225.575 48.2973 225.46 47.0362 224.611 46.3295L222.052 49.4037ZM227.599 36.53V44.5323H231.599V36.53H227.599ZM237.475 49.4037L243.082 44.7357L240.523 41.6615L234.916 46.3295L237.475 49.4037ZM237.706 56.4796L244.633 58.1468L245.569 54.2578L238.642 52.5907L237.706 56.4796ZM231.123 61.7939L234.421 68.1291L237.969 66.2818L234.671 59.9467L231.123 61.7939ZM223.829 60.0217L220.861 66.3568L224.483 68.0541L227.451 61.7189L223.829 60.0217ZM220.884 52.5907L213.958 54.2578L214.894 58.1468L221.82 56.4796L220.884 52.5907ZM216.445 44.7357L222.052 49.4037L224.611 46.3295L219.004 41.6615L216.445 44.7357Z" fill="#009D8C"/>
<path d="M215.843 209.532C215.843 208.428 214.947 207.532 213.843 207.532C212.738 207.532 211.843 208.428 211.843 209.532H215.843ZM211.843 219.335C211.843 220.44 212.738 221.335 213.843 221.335C214.947 221.335 215.843 220.44 215.843 219.335H211.843ZM220.644 221.882C219.795 222.589 219.68 223.85 220.387 224.699C221.093 225.548 222.354 225.663 223.203 224.957L220.644 221.882ZM230.072 219.238C230.921 218.532 231.036 217.271 230.33 216.422C229.623 215.573 228.362 215.457 227.513 216.164L230.072 219.238ZM224.816 229.644C223.742 229.386 222.662 230.047 222.404 231.121C222.145 232.194 222.806 233.275 223.88 233.533L224.816 229.644ZM232.365 235.575C233.439 235.834 234.519 235.173 234.778 234.099C235.036 233.025 234.375 231.945 233.301 231.686L232.365 235.575ZM219.657 238.425C219.147 237.446 217.939 237.065 216.959 237.575C215.98 238.085 215.599 239.293 216.109 240.273L219.657 238.425ZM220.15 248.033C220.66 249.013 221.868 249.394 222.847 248.884C223.827 248.373 224.208 247.166 223.698 246.186L220.15 248.033ZM210.805 240.198C211.274 239.197 210.843 238.007 209.842 237.538C208.842 237.069 207.651 237.5 207.183 238.5L210.805 240.198ZM203.546 246.261C203.078 247.261 203.508 248.452 204.509 248.921C205.509 249.389 206.7 248.958 207.168 247.958L203.546 246.261ZM204.209 233.533C205.283 233.275 205.944 232.194 205.686 231.121C205.427 230.047 204.347 229.386 203.273 229.644L204.209 233.533ZM194.788 231.686C193.714 231.945 193.053 233.025 193.311 234.099C193.57 235.173 194.65 235.834 195.724 235.575L194.788 231.686ZM200.576 216.164C199.727 215.457 198.466 215.573 197.759 216.422C197.053 217.271 197.168 218.532 198.017 219.238L200.576 216.164ZM204.886 224.957C205.735 225.663 206.996 225.548 207.703 224.699C208.409 223.85 208.294 222.589 207.445 221.882L204.886 224.957ZM211.843 209.532V219.335H215.843V209.532H211.843ZM223.203 224.957L230.072 219.238L227.513 216.164L220.644 221.882L223.203 224.957ZM223.88 233.533L232.365 235.575L233.301 231.686L224.816 229.644L223.88 233.533ZM216.109 240.273L220.15 248.033L223.698 246.186L219.657 238.425L216.109 240.273ZM207.183 238.5L203.546 246.261L207.168 247.958L210.805 240.198L207.183 238.5ZM203.273 229.644L194.788 231.686L195.724 235.575L204.209 233.533L203.273 229.644ZM198.017 219.238L204.886 224.957L207.445 221.882L200.576 216.164L198.017 219.238Z" fill="#006A75"/>
<circle cx="98.7732" cy="246.687" r="4.60131" stroke="#006A75" stroke-width="5"/>
<circle cx="253.034" cy="115.519" r="3.06754" stroke="#009D8C" stroke-width="5"/>
<circle cx="79.4547" cy="55.7023" r="6.90197" stroke="#006A75" stroke-width="5"/>
<rect x="28.0742" y="122.151" width="11.5033" height="11.5033" transform="rotate(-45.2228 28.0742 122.151)" fill="#006A75"/>
<rect x="1.38672" y="197.719" width="11.5033" height="11.5033" transform="rotate(-75.5406 1.38672 197.719)" fill="#006A75"/>
<rect x="150.828" y="250.335" width="10.0678" height="10.0678" transform="rotate(-16.2169 150.828 250.335)" fill="#009D8C"/>
<rect x="174.549" y="28.6055" width="10.0678" height="10.0678" transform="rotate(-16.2169 174.549 28.6055)" fill="#009D8C"/>
<path d="M222.777 102.71C224.266 102.321 225.618 103.69 225.211 105.175L223.527 111.303C223.119 112.787 221.257 113.273 220.175 112.178L215.71 107.656C214.629 106.56 215.139 104.705 216.628 104.316L222.777 102.71Z" fill="#006A75"/>
<path d="M227.487 187.213C225.952 187.093 225.122 185.356 225.994 184.087L227.418 182.013C228.29 180.744 230.208 180.894 230.872 182.283L231.956 184.554C232.62 185.943 231.53 187.53 229.995 187.41L227.487 187.213Z" fill="#009D8C"/>
<path d="M41.0649 171.137C40.7612 172.646 38.9375 173.261 37.7822 172.243L35.894 170.58C34.7387 169.562 35.1183 167.676 36.5773 167.184L38.9618 166.38C40.4208 165.889 41.8649 167.161 41.5612 168.67L41.0649 171.137Z" fill="#009D8C"/>
<path d="M45.0924 41.7947C43.5875 42.12 42.2948 40.6943 42.7655 39.2284L43.5348 36.8326C44.0054 35.3667 45.8865 34.9601 46.9206 36.1006L48.6108 37.9647C49.645 39.1053 49.0566 40.9376 47.5518 41.263L45.0924 41.7947Z" fill="#009D8C"/>
<path d="M115.03 12.9983C117.247 12.4619 118.609 10.2302 118.073 8.01356C117.536 5.79693 115.305 4.43479 113.088 4.97114" stroke="#009D8C" stroke-width="5"/>
<path d="M116.972 21.0254C114.755 21.5618 112.523 20.1996 111.987 17.983C111.451 15.7664 112.813 13.5346 115.029 12.9983" stroke="#009D8C" stroke-width="5"/>
<path d="M118.913 29.0525C121.13 28.5161 122.492 26.2844 121.956 24.0678C121.419 21.8511 119.187 20.489 116.971 21.0253" stroke="#009D8C" stroke-width="5"/>
<path d="M120.856 37.0796C118.64 37.616 116.408 36.2538 115.872 34.0372C115.335 31.8206 116.697 29.5888 118.914 29.0525" stroke="#009D8C" stroke-width="5"/>
<path d="M255.306 155.534C255.302 157.814 257.147 159.667 259.427 159.671C261.708 159.676 263.56 157.83 263.565 155.55" stroke="#006A75" stroke-width="5"/>
<path d="M247.048 155.517C247.052 153.237 248.905 151.391 251.185 151.396C253.466 151.4 255.311 153.253 255.307 155.533" stroke="#006A75" stroke-width="5"/>
<path d="M238.788 155.501C238.784 157.782 240.629 159.634 242.91 159.639C245.19 159.643 247.043 157.798 247.047 155.517" stroke="#006A75" stroke-width="5"/>
<path d="M230.53 155.485C230.535 153.205 232.387 151.359 234.668 151.364C236.948 151.368 238.794 153.221 238.789 155.501" stroke="#006A75" stroke-width="5"/>
<path d="M46.7027 215.179C48.9592 214.848 50.5201 212.75 50.1891 210.494C49.8581 208.237 47.7606 206.677 45.5042 207.007" stroke="#009D8C" stroke-width="5"/>
<path d="M47.8997 223.35C45.6432 223.681 43.5457 222.12 43.2148 219.864C42.8838 217.607 44.4447 215.51 46.7012 215.179" stroke="#009D8C" stroke-width="5"/>
<path d="M49.0992 231.522C51.3556 231.191 52.9166 229.093 52.5856 226.837C52.2546 224.58 50.1571 223.019 47.9007 223.35" stroke="#009D8C" stroke-width="5"/>
<path d="M50.2981 239.693C48.0417 240.024 45.9442 238.463 45.6132 236.206C45.2822 233.95 46.8432 231.852 49.0996 231.521" stroke="#009D8C" stroke-width="5"/>
</svg>
