<svg width="20" height="20" viewBox="0 0 20 20" fill="none" xmlns="http://www.w3.org/2000/svg">
<path d="M20 10C20 4.4775 15.5225 0 10 0C4.4775 0 0 4.4775 0 10C0 14.9912 3.65625 19.1287 8.4375 19.8787V12.8912H5.89875V10H8.4375V7.7975C8.4375 5.29125 9.93 3.90625 12.215 3.90625C13.3088 3.90625 14.4538 4.10125 14.4538 4.10125V6.5625H13.1925C11.95 6.5625 11.5625 7.33375 11.5625 8.12375V10H14.3363L13.8925 12.8912H11.5625V19.8787C16.3438 19.1287 20 14.9912 20 10Z" fill="url(#paint0_linear)"/>
<path d="M14.3359 10H11.5622V8.12375C11.5622 7.3325 11.9497 6.5625 13.1922 6.5625H14.4534V4.10125C14.4534 4.10125 13.3084 3.90625 12.2147 3.90625C9.92969 3.90625 8.43719 5.29125 8.43719 7.7975V10H5.89844V12.8913H8.43719V19.8788C8.94594 19.9588 9.46844 20 9.99969 20C10.5309 20 11.0534 19.9588 11.5622 19.8788V12.8913H13.8922L14.3359 10Z" fill="white"/>
<defs>
<linearGradient id="paint0_linear" x1="10" y1="19.8785" x2="10" y2="0" gradientUnits="userSpaceOnUse">
<stop stop-color="#1569CB"/>
<stop offset="1" stop-color="#29AEF3"/>
</linearGradient>
</defs>
</svg>
