<svg width="20" height="20" viewBox="0 0 20 20" fill="none" xmlns="http://www.w3.org/2000/svg">
<path d="M19.8036 10.235C19.8036 9.55523 19.7484 8.87183 19.6309 8.20312H10.1992V12.0537H15.6003C15.3762 13.2956 14.656 14.3941 13.6015 15.0922V17.5907H16.8238C18.716 15.8491 19.8036 13.2772 19.8036 10.235Z" fill="#4285F4"/>
<path d="M10.1993 19.9973C12.8962 19.9973 15.1705 19.1118 16.8275 17.5833L13.6053 15.0849C12.7088 15.6948 11.5514 16.0402 10.203 16.0402C7.5943 16.0402 5.38244 14.2802 4.58881 11.9141H1.26367V14.4897C2.96115 17.8663 6.41856 19.9973 10.1993 19.9973Z" fill="#34A853"/>
<path d="M4.58534 11.9119C4.16649 10.67 4.16649 9.3253 4.58534 8.08342V5.50781H1.26387C-0.154364 8.33326 -0.154364 11.6621 1.26387 14.4875L4.58534 11.9119Z" fill="#FBBC04"/>
<path d="M10.1993 3.95778C11.6249 3.93573 13.0027 4.47216 14.0352 5.45685L16.89 2.602C15.0823 0.904525 12.6831 -0.0287197 10.1993 0.000673842C6.41856 0.000673842 2.96115 2.1317 1.26367 5.51196L4.58514 8.08757C5.37509 5.71772 7.59063 3.95778 10.1993 3.95778Z" fill="#EA4335"/>
</svg>
