<svg width="20" height="22" viewBox="0 0 20 22" fill="none" xmlns="http://www.w3.org/2000/svg">
<path d="M4 5H16V8.96L10 7L4 8.96V5ZM1.94 18H2C3.6 18 5 17.12 6 16C7 17.12 8.4 18 10 18C11.6 18 13 17.12 14 16C15 17.12 16.4 18 18 18H18.05L19.95 11.31C20.03 11.06 20 10.78 19.89 10.54C19.76 10.3 19.55 10.12 19.29 10.04L18 9.62V5C18 4.46957 17.7893 3.96086 17.4142 3.58579C17.0391 3.21071 16.5304 3 16 3H13V0H7V3H4C3.46957 3 2.96086 3.21071 2.58579 3.58579C2.21071 3.96086 2 4.46957 2 5V9.62L0.71 10.04C0.45 10.12 0.24 10.3 0.11 10.54C-1.04308e-07 10.78 -0.03 11.06 0.05 11.31L1.94 18ZM18 20C16.61 20 15.22 19.53 14 18.67C11.56 20.38 8.44 20.38 6 18.67C4.78 19.53 3.39 20 2 20H0V22H2C3.37 22 4.74 21.65 6 21C8.5 22.3 11.5 22.3 14 21C15.26 21.65 16.62 22 18 22H20V20H18Z" fill="#BDBDBD"/>
</svg>
