<svg width="24" height="20" viewBox="0 0 24 20" fill="none" xmlns="http://www.w3.org/2000/svg">
<path d="M11.9987 0.666504H3.83203C2.90377 0.666504 2.01354 1.03525 1.35716 1.69163C0.70078 2.34801 0.332031 3.23825 0.332031 4.1665V13.4998C0.332031 14.4281 0.70078 15.3183 1.35716 15.9747C2.01354 16.6311 2.90377 16.9998 3.83203 16.9998L2.66536 18.1665V19.3332H3.83203L6.16537 16.9648L8.4987 16.9998V11.1665H2.66536V2.99984H13.1654V5.33317H15.4987V4.1665C15.4987 3.23825 15.13 2.34801 14.4736 1.69163C13.8172 1.03525 12.927 0.666504 11.9987 0.666504ZM3.83203 12.3332C4.14145 12.3332 4.4382 12.4561 4.65699 12.6749C4.87578 12.8937 4.9987 13.1904 4.9987 13.4998C4.9987 13.8093 4.87578 14.106 4.65699 14.3248C4.4382 14.5436 4.14145 14.6665 3.83203 14.6665C3.52261 14.6665 3.22587 14.5436 3.00707 14.3248C2.78828 14.106 2.66536 13.8093 2.66536 13.4998C2.66536 13.1904 2.78828 12.8937 3.00707 12.6749C3.22587 12.4561 3.52261 12.3332 3.83203 12.3332ZM21.997 7.26984C21.8337 6.80317 21.3904 6.49984 20.8654 6.49984H12.477C11.9404 6.49984 11.5087 6.80317 11.3337 7.26984L9.66537 12.0648V18.4932C9.66537 18.9365 10.0387 19.3332 10.482 19.3332H11.2054C11.6487 19.3332 11.9987 18.8898 11.9987 18.4465V16.9998H21.332V18.4465C21.332 18.8898 21.6937 19.3332 22.137 19.3332H22.8487C23.292 19.3332 23.6654 18.9365 23.6654 18.4932V12.0648L21.997 7.26984ZM12.477 7.6665H20.8654L22.067 11.1665H11.2754L12.477 7.6665ZM11.9987 14.6665C11.6893 14.6665 11.3925 14.5436 11.1737 14.3248C10.9549 14.106 10.832 13.8093 10.832 13.4998C10.832 13.1904 10.9549 12.8937 11.1737 12.6749C11.3925 12.4561 11.6893 12.3332 11.9987 12.3332C12.3081 12.3332 12.6049 12.4561 12.8237 12.6749C13.0424 12.8937 13.1654 13.1904 13.1654 13.4998C13.1654 13.8093 13.0424 14.106 12.8237 14.3248C12.6049 14.5436 12.3081 14.6665 11.9987 14.6665ZM21.332 14.6665C21.0226 14.6665 20.7259 14.5436 20.5071 14.3248C20.2883 14.106 20.1654 13.8093 20.1654 13.4998C20.1654 13.1904 20.2883 12.8937 20.5071 12.6749C20.7259 12.4561 21.0226 12.3332 21.332 12.3332C21.6415 12.3332 21.9382 12.4561 22.157 12.6749C22.3758 12.8937 22.4987 13.1904 22.4987 13.4998C22.4987 13.8093 22.3758 14.106 22.157 14.3248C21.9382 14.5436 21.6415 14.6665 21.332 14.6665Z" fill="#BDBDBD"/>
</svg>
