<svg width="18" height="18" viewBox="0 0 18 18" fill="none" xmlns="http://www.w3.org/2000/svg">
<path d="M2 8L3.5 3.5H14.5L16 8H2ZM14.5 13C14.1022 13 13.7206 12.842 13.4393 12.5607C13.158 12.2794 13 11.8978 13 11.5C13 11.1022 13.158 10.7206 13.4393 10.4393C13.7206 10.158 14.1022 10 14.5 10C14.8978 10 15.2794 10.158 15.5607 10.4393C15.842 10.7206 16 11.1022 16 11.5C16 11.8978 15.842 12.2794 15.5607 12.5607C15.2794 12.842 14.8978 13 14.5 13ZM3.5 13C3.10218 13 2.72064 12.842 2.43934 12.5607C2.15804 12.2794 2 11.8978 2 11.5C2 11.1022 2.15804 10.7206 2.43934 10.4393C2.72064 10.158 3.10218 10 3.5 10C3.89782 10 4.27936 10.158 4.56066 10.4393C4.84196 10.7206 5 11.1022 5 11.5C5 11.8978 4.84196 12.2794 4.56066 12.5607C4.27936 12.842 3.89782 13 3.5 13ZM15.92 3C15.72 2.42 15.16 2 14.5 2H12V0H6V2H3.5C2.84 2 2.28 2.42 2.08 3L0 9V17C0 17.2652 0.105357 17.5196 0.292893 17.7071C0.48043 17.8946 0.734784 18 1 18H2C2.26522 18 2.51957 17.8946 2.70711 17.7071C2.89464 17.5196 3 17.2652 3 17V16H15V17C15 17.2652 15.1054 17.5196 15.2929 17.7071C15.4804 17.8946 15.7348 18 16 18H17C17.2652 18 17.5196 17.8946 17.7071 17.7071C17.8946 17.5196 18 17.2652 18 17V9L15.92 3Z" fill="#BDBDBD"/>
</svg>
