<svg width="14" height="20" viewBox="0 0 14 20" fill="none" xmlns="http://www.w3.org/2000/svg">
<path d="M14 14.94V6.5C14 3.71 11.39 3.1 8 3L8.75 1.5H12V0H2V1.5H6.75L6 3C2.86 3.11 0 3.73 0 6.5V14.94C0 16.39 1.19 17.6 2.59 17.91L1 19.5V20H3.23L5.23 18H9L11 20H13V19.5L11.5 18H11.42C13.11 18 14 16.63 14 14.94ZM7 16.5C6.60218 16.5 6.22064 16.342 5.93934 16.0607C5.65804 15.7794 5.5 15.3978 5.5 15C5.5 14.6022 5.65804 14.2206 5.93934 13.9393C6.22064 13.658 6.60218 13.5 7 13.5C7.39782 13.5 7.77936 13.658 8.06066 13.9393C8.34196 14.2206 8.5 14.6022 8.5 15C8.5 15.3978 8.34196 15.7794 8.06066 16.0607C7.77936 16.342 7.39782 16.5 7 16.5ZM12 12H2V7H12V12Z" fill="#BDBDBD"/>
</svg>
